<?xml version="1.0" encoding="UTF-8"?>
<svg id="Layer_1" xmlns="http://www.w3.org/2000/svg" viewBox="0 0 3000 2400">
  <defs>
    <style>
      .cls-1, .cls-2 {
        fill: #e8ddc3;
      }

      .cls-3 {
        fill: #eadcc4;
        font-family: BebasNeue-Regular, 'Bebas Neue';
        font-size: 111.27px;
      }

      .cls-4, .cls-2, .cls-5 {
        fill-rule: evenodd;
      }

      .cls-4, .cls-6 {
        fill: #071b22;
      }

      .cls-7 {
        fill: #123341;
      }

      .cls-8, .cls-5 {
        fill: #7c5523;
      }
    </style>
  </defs>
  <rect class="cls-6" width="3000" height="2400"/>
  <g>
    <path class="cls-1" d="M744.2,1325.23c-.36-2.35,1.47-61.85-.32-62.58-2.51-9.74-7.53-19.26-14.35-24.34,6.82-6.5,12.93-15.24,15.46-26.44,1.81-17.78-2.12-72.08,4.02-89.02,13.01-43.09,52.12-60.93,85.36-53.62,30.72,5.6,60.56,35.65,57.46,75.6,0,1.76-.04,7.93-.05,10.13.27,17.99-10.28,35.38-29.74,36.31-11.54.79-29.17-2.93-32.01-16.89,5.77-1.27,10.84-7,13.03-13.88.73-3.2,1.11-6.83.76-9.98.01-3.61.41-11.76-.3-14.89-1.05-7.63-6.08-13.35-11.13-16.84-12.25-7.82-29.95-4.27-38.29,11.39-1.45,2.84-2.54,6.6-2.91,10.34,0,1.84-1.59,67.57-.16,69.32,2.5,9.56,8.23,16.47,14.7,20.93-.12.17-.24.33-.36.5-7.21,6.67-12.63,16.98-15.17,27.97-.37,4.22-1.21,61.59-.5,64.28,1.07,4.03,2.85,8.41,5.35,10.81,12.5,14.28,38.33,6.78,45.96-15.45,1.09-4.22,1.11-8.74,1.13-12.81,0-1.81.41-13.6.06-14.92-.33-8.98-6.41-15.97-13.23-16.55,3.28-13.6,18.05-20.14,32.45-22.46,15.12-1.93,27.67,9.66,28.67,25.36.34,4.8-.06,11.9-.08,16.74,2.34,34.43-13.99,62.55-39.52,80.87-40.66,30.48-105.56,18.19-106.26-49.88Z"/>
    <path class="cls-1" d="M944.79,1336.35c-11.03-20.82-9.81-44.33-9.16-92.99.4-6.06.63-44.8.78-69.77-2.83-10.16-16.13-18.63-19.37-20.67,2.17-.1,9.75-.44,19.5-.85,0,0,26-1.11,41.18-1.71,0,.14,0,.28,0,.42,8.31-.34,16.26-1.07,22.76-1.31-8.7,4.92-18.51,12.9-22.91,23.26-.15,22.79-.37,56.56-.46,69.64-.29,44.27-5.46,63.08,8.89,74.03,18.28,14.1,50.19-6.09,50.19-5.97.58-48.24,1.17-96.47,1.75-144.68-4.28-8.43-15.43-15.44-18.31-17,1.81-.07,9.04-.33,18.43-.67,3.25-.12,6.15-.22,9.04-.32,18.43-.24,41.58-1,55.68-1.83-8.71,4.66-18.16,11.83-22.94,22.12-.19,25.45-.2,127.14-.22,129.55-.09,12.94,11.03,23.92,18.61,26.36-8.73,6.48-17.08,11.35-31.21,17.39-12.69,5.45-34.77,12.6-53.19,17.09-38.3,10.05-56.94,1.65-69.04-22.08Z"/>
    <path class="cls-1" d="M1150.33,1273.92c.12-17.31,1.49-57.08-.58-71.53-2.11-8.94-8.57-15.36-15.42-19.82,7.27-5.05,12.04-13.5,14.99-21.86.36-.01.79-9.86,1.25-22.85-.25-15.33-.11-35.4-.09-38.16.03-3.93-1.39-8.25-1.74-9.03-3.91-9.41-12.54-15.69-21.19-20.43,26.88-.05,53.75-.1,80.63-.14-.24.13-.48.26-.73.39-6.17,3.87-10.91,9.71-11.69,17.47-.11,16.28-.29,42.27-.1,69.01,2.54-1.23,5.09-2.85,7.99-4.09,1.09-.41,1.81-.43,2.9-.85,12.68-2.24,20.93,10.26,30.67,15.72,5.06,2.16,11.22.45,15.95-2.72-4.02,6.58-14.24,18.72-22.6,23.62-21.81,13.06-27.19,5.26-35.12-.67.06,45.73-.22,86.43-.18,80.62-.15,21.36,11.35,37.15,28.78,33.65,10.53-2.24,18.56-10.37,18.63-20.69-.27-14.51-12.95-16.9-12.95-16.9,4.05-9.82,14.97-16.48,26.56-15.49,17.39,2.26,28.93,15.41,30.29,31.59,2.38,29.71-23.14,47.41-47.49,53.42-45.45,11.05-89.1-13.18-88.76-60.26Z"/>
    <path class="cls-1" d="M1314.25,1189.59c.08-16.18.16-32.36.24-48.54.72-.01,1.45-.02,2.17-.03,40.8-.61,81.61-1.05,122.42-1.29-.03,12.32-.05,24.65-.08,36.97-11.88,15.88-23.77,31.83-35.67,47.88-.36.38-.37.75-.73,1.13-2.56,7.84-.78,16.72,2.47,24.81-8.35-1.31-16.71,1.85-23.62,5.76-.36.38-1.46,1.15-2.91,2.31-8.03,11.01-16.06,22.07-24.1,33.19,5.45-1.06,63.6-.52,67.25-3.81,5.82-2.35,11.29-6.52,15.66-11.41-.02,8.5-.45,37.35-.47,46.97-41.12.88-82.23,2.39-123.31,4.54.19-13.05.37-26.1.56-39.15,12.8-18.12,25.59-36.06,38.36-53.85,2.57-7.92.79-16.45-2.44-24.23,8.34,1.29,16.33-1.88,23.6-5.75,0,0,.36-.38.73-.76,7.29-9.95,14.58-19.86,21.86-29.74-5.08.39-62.34-.51-65.98,2.62-6.17,2.38-11.63,7.01-16.01,12.38Z"/>
    <path class="cls-1" d="M1461.62,1323.07c7.65-3.45,21.12-12.81,24.04-23.15-.36-.74,1.19-105.46.46-106.19-2.17-6.26-8.33-13.61-15.22-14.3,2.91-1.13,13.07-12.97,14.89-18.88,2.54-1.12,1.15-66.37,1.87-68.21-3.25-10.69-14.45-17.69-23.85-22.48,24.59.73,77.74-.01,84.25,0-3.97,2.21-20.25,12.16-20.25,21.74,0,10.69,0,54.9,0,54.9,0,0,16.3-5.51,22.1-6.97,35.85-8.77,57.59,2.42,69.61,24.75,13.47,25.3,17.57,59.15,14.74,85.42-4.25,37.4-18,62.12-53.65,71.15-3.64.69-9.1,1.72-13.1,1.67-34.58.3-77.9.1-105.92.57ZM1588.92,1272.95c10.5-22.73,10.36-82.3-10.68-98.66-18.87-14.88-50.75,6.46-50.76,6.46-.12,36.23-.23,72.47-.35,108.7,19.64.72,52.02,4.75,61.79-16.5Z"/>
    <path class="cls-1" d="M1765.4,1330.03c-20.71-1.26-41.43-2.37-62.15-3.31.24-.11.48-.23.73-.34,5.44-3.12,9.05-8.57,10.47-14.51.36-.36.36-1.48.72-2.22.36-.73.14-47.26.14-48.01-1.49-7.18-6.6-15.23-12.79-19.54,3.62-2.13,7.24-5.02,9.4-8.33-13.05-24.9-26.09-49.58-39.11-74.1-3.65-6.76-7.66-13.51-13.47-18.03-1.09-.38-2.18-1.51-3.27-1.89,14.85.13,49.98.18,64.47.78-2.17,1.47-4.69,4.06-6.12,6.66-1.44,2.23-2.15,5.22-1.77,7.85,0,.37.37,1.51.37,1.88,7.43,14.63,14.87,29.32,22.32,44.09.35-2.94,26.56-48.02,22.56-50.43-1.47-3.81-4.39-7.27-7.66-9.59,14.48.23,49.96.52,64.8,1.23q-.36,0-.36,0-.36.38-.72.37c1.09.02,2.17.05,3.26.07-1.09-.02-2.17-.05-3.26-.07-5.77,3.71-9.71,9.37-13.3,15.02-.72,1.13-1.79,3.01-2.15,4.15-.34.57-40.86,73.77-41.24,74.33,2.56,3.88,6.2,6.68,9.48,9.47-6.15,3.54-10.46,10.17-12.6,17.25,0,.76-.46,48.36-.1,49.14.01,1.89.75,4.2,1.12,5.73,1.48,5.37,5.86,9.41,10.24,12.33Z"/>
    <path class="cls-1" d="M1871.63,1113.11c-6.86,1.85-12.97,6.81-18.01,11.76.12-17.99.24-35.98.36-53.98.72,0,1.45,0,2.17,0,45.08.09,90.15.19,135.23.31-.02,14.16-.04,28.31-.06,42.46-13.63,31.02-27.27,61.51-40.91,91.55-.36.38-.35,1.59-.34,2.39.06,7.63,2.64,15,5.95,22.05-6.15-.39-12.28,2.03-17.31,5.7-1.44.71-2.52,1.84-3.6,2.56-9.73,21.32-19.47,42.41-29.21,63.31,5.8-.44,64.09,7.26,68.39,4.15,6.13-1.83,12.24-5.71,16.9-10.97.07,9.8-.03,46.07.05,56.68-45.06-5.36-90.21-9.94-135.43-13.74.03-13.46.06-26.91.09-40.37,13.46-28.15,26.9-56.62,40.32-85.46,0-.79-.01-1.97-.02-2.76-.41-6.71-2.99-13.13-5.92-18.75,6.51-.12,13.37-2.97,18.04-6.73.36-.38,1.08-.75,1.44-1.13,10.69-23.02,21.37-46.29,32.04-69.85-6.14.65-66.55-2.31-70.15.79Z"/>
    <path class="cls-1" d="M2108.82,1366.02c-20.87-3.17-59.45-8.51-80.4-11.14,7.91-3.96,16.53-8.68,20.79-17.77.36-.37.71-2,1.06-2.8.1-20.35.21-40.7.31-61.06,0-.84-.74-2.16-1.11-3.45-2.94-7.39-7.32-14.46-13.12-18.68,5.39-3.71,10.77-8.7,13.25-15.2.36-.39,1.07-1.59,1.07-2.43.22-21.06.44-42.12.66-63.2-.78-8.84-4.8-15.72-11.34-20.55-.12-.14-.24-.29-.36-.43,26.74,1.02,53.47,2.11,80.19,3.29-8.27,4.83-16.9,10.89-21.17,21.37-.36.84-1.07,2.51-1.06,2.94.74,2.63-2.17,58.92.01,61.22,2.57,7.49,8.38,14.45,14.18,19.75-7.18,4.49-12.17,13-15,21.68.37,1.76-.36,58.56-.35,60.26.37,1.76.38,3.9.75,5.23.13.87.25,1.74.38,2.62,1.48,7.48,5.85,14.09,11.26,18.34ZM2051.68,1114.15c-2.88,1.2-10.07,6.45-10.07,6.45,0-.03,2.73-23.61,19.94-44.13.72-.84,1.43-1.68,2.15-2.1,10.79-8.41,23.5.07,34.71,1.02,5.42.03,10.45-5.1,13.31-10.72-.67,9.07-5.27,26.29-10.99,35.19-21.1,34.18-30.67,6.99-49.05,14.28Z"/>
    <path class="cls-1" d="M2168.74,1423.76c-.09-18.58,15.28-30.57,27.83-28.35,11.48,2.06,22.24,9.06,26.22,21.73,0,0-13.24-.76-13.91,13.15-.68,9.82,5.09,21.44,15.46,25.57,19.32,7.99,37.47-5.44,37.42-31.26,0-.47-.03-15.43-.07-35.52-39.97,11.99-98.57-23.74-98.9-83.18-.02-4.87.28-17.22-1.17-18.27-2.92-9.63-7.65-19.41-14.88-25.41,7.18-4.53,13.26-11.43,15.37-21.41,2.08-16.2-1.93-26.67,3.76-41.76,13.14-38.39,45.94-51.71,82.02-42.98,28.86,6.45,50.85,33.61,50.86,74.88q0,.48,0,.96c0,.16,0,.32,0,.48,0,5.26-.3,96.44,1.13,97.63,2.87,10.97,7.52,21.33,14.67,28.39-6.79,5.07-13.22,12.05-15.35,22.16-2.13,17.74-1.05,26.06-1.04,47.08,0,57.38-40.09,80.87-84.43,60.92-24.32-10.83-44.85-33.82-44.99-64.79ZM2200.2,1224.57c0,1.81-.89,47.31-.81,69.42.09,22.55,5.9,40.07,13.82,46.75,19.79,16.72,48.4,11.58,48.34-21.78-.05-22.9.66-30.76.66-30.76-.01-7.01-.02-12.16-.03-14.96,0-1.4,0-1.87,0-1.87-.01-5.61-.04-21.04-.07-34.14-.02-10.26.67-28.08-14.47-38.98-21.28-14.92-47.89,1.62-47.43,26.32Z"/>
  </g>
  <path class="cls-7" d="M1499.96,1947.91c-236.41,0-454.02-108.48-597.02-297.62-5.69-7.58-11.81-14.06-19.95-21.02,38.03-13.66,72.61-28.12,103.27-49.89,120.29,162.59,311.43,259.29,513.7,259.29s393.5-96.7,513.77-259.29c30.65,21.75,65.23,36.22,103.27,49.9-8.02,6.85-14.2,13.37-19.95,21.05-142.98,189.11-360.62,297.59-597.08,297.59Z"/>
  <path class="cls-8" d="M2140.94,1625.77c-49.28-17.09-92.51-33.22-129.63-62.23-113.73,159.67-300.5,263.86-511.35,263.86s-397.54-104.19-511.27-263.86c-37.12,29.01-80.35,45.14-129.71,62.23,6.91,3.89,11.52,7.71,12.8,8.82,9.7,7.87,16.21,14.54,22.17,22.49,138.69,183.43,358.6,302.09,606.01,302.09s467.4-118.66,606.09-302.09c5.96-7.95,12.48-14.62,22.17-22.49,1.27-1.11,5.88-4.93,12.72-8.82ZM2017.51,1537.47c47.13,41.17,105.47,56.27,174.53,80.67,8.42,2.46,17.09,7.07,25.59,14.86,18.6,17.01,23.05,40.37,17.72,60.56-5.88,22.33-23.76,40.45-47.05,42.84-18.44,1.83-34.17-3.97-43.79-12.88-10.17-9.3-14.15-21.94-10.01-34.18,1.03-2.7,2.07-5.17,3.42-7.15,4.77-7.15,10.33-10.97,16.29-12.24,2.86-.64,5.64-1.11,8.35-.79,9.06,1.03,16.13,5.72,16.13,5.72,2.62,1.27,3.81,4.45,2.54,7.07-1.19,2.7-4.37,3.81-7.07,2.62,0,0-7.55-1.27-13.75,2.23-1.03.64-1.51,1.83-2.38,2.86-1.19,1.59-1.83,3.74-2.46,6.44-1.51,5.17,2.38,9.62,7.63,12.8,5.8,3.42,13.75,5.09,22.65,4.05,13.35-1.43,22.97-12.56,26.31-25.43,3.18-12.32.56-26.47-10.73-36.8-9.62-8.74-19.39-11.37-28.06-10.73-16.45,1.11-29.09,12.4-29.41,12.64v.08l-.16.16-.24.16-.16.16c-7.95,6.44-13.35,11.84-18.28,18.36-142.98,189.23-369.88,311.55-625.16,311.55s-482.11-122.31-625.08-311.55c-4.93-6.52-10.33-11.92-18.28-18.36-.08-.08-.16-.08-.16-.16l-.08-.08-.16-.08-.24-.24c-.24-.24-12.88-11.52-29.41-12.64-8.66-.64-18.36,1.99-27.98,10.73-11.29,10.33-13.91,24.48-10.81,36.8,3.34,12.88,12.95,24,26.39,25.43,8.9,1.03,16.85-.64,22.65-4.05,5.25-3.18,9.14-7.63,7.63-12.8-.64-2.7-1.27-4.85-2.46-6.44-.87-1.03-1.35-2.23-2.38-2.86-6.28-3.5-13.75-2.23-13.75-2.23-2.7,1.19-5.88.08-7.07-2.62-1.27-2.62-.08-5.8,2.54-7.07,0,0,6.99-4.69,16.13-5.72,2.7-.32,5.4.16,8.34.79,5.88,1.27,11.52,5.09,16.29,12.24,1.35,1.99,2.38,4.45,3.42,7.15,4.13,12.24.08,24.88-10.01,34.18-9.62,8.9-25.35,14.7-43.79,12.88-23.29-2.38-41.17-20.51-47.05-42.84-5.32-20.19-.87-43.55,17.72-60.56,8.5-7.79,17.17-12.4,25.59-14.86,68.99-24.4,127.4-39.5,174.53-80.67.56-.48,1.11-1.03,1.75-1.43,5.48-3.74,12.95-2.3,16.69,3.18,108.64,159.43,291.76,264.26,499.03,264.26s389.83-104.43,498.56-263.47c.4-.72.87-1.35,1.43-1.99,2.3-2.62,5.48-3.97,8.74-4.05,2.38-.08,4.85.56,6.99,2.07.72.4,1.27.95,1.83,1.43Z"/>
  <path class="cls-7" d="M2013.73,820.64c-120.31-162.61-311.5-259.35-513.77-259.35s-393.37,96.74-513.68,259.35c-30.67-21.81-65.24-36.28-103.29-49.95,8.11-6.91,14.3-13.41,19.97-20.98,142.98-189.11,360.59-297.58,597-297.58s454.1,108.48,597.11,297.62c5.6,7.47,11.73,13.92,19.93,20.93-38.05,13.69-72.63,28.17-103.27,49.96Z"/>
  <path class="cls-8" d="M2011.32,836.49c37.12-29.09,80.35-45.22,129.63-62.31-6.83-3.89-11.44-7.71-12.72-8.82-9.7-7.87-16.21-14.46-22.17-22.41-138.69-183.43-358.6-302.09-606.09-302.09s-467.32,118.66-606.01,302.09c-5.96,7.95-12.48,14.54-22.17,22.41-1.27,1.11-5.88,4.93-12.8,8.82,49.35,17.09,92.59,33.22,129.71,62.31,113.73-159.67,300.42-263.94,511.27-263.94s397.62,104.27,511.35,263.94ZM2188.31,663.63c23.29,2.3,41.17,20.51,47.05,42.84,5.33,20.19.87,43.47-17.72,60.48-8.5,7.79-17.17,12.48-25.59,14.94-69.07,24.4-127.4,39.5-174.53,80.59-.56.56-1.11,1.03-1.83,1.51-5.4,3.74-12.88,2.3-16.61-3.18-108.64-159.51-291.76-264.26-499.11-264.26s-389.75,104.43-498.48,263.47c-.4.72-.87,1.35-1.43,1.99-2.3,2.62-5.48,3.97-8.74,4.05-2.38.08-4.85-.64-7.07-2.07-.64-.48-1.19-.95-1.75-1.51-47.13-41.09-105.55-56.19-174.53-80.59-8.42-2.46-17.09-7.15-25.59-14.94-18.6-17.01-23.05-40.29-17.72-60.48,5.88-22.33,23.76-40.53,47.05-42.84,18.44-1.83,34.17,3.89,43.79,12.8,10.09,9.38,14.15,21.94,10.01,34.18-1.03,2.78-2.07,5.25-3.42,7.23-4.77,7.07-10.41,10.97-16.29,12.24-2.94.64-5.64,1.11-8.34.79-9.14-1.03-16.13-5.72-16.13-5.72-2.62-1.27-3.81-4.45-2.54-7.15,1.19-2.62,4.37-3.81,7.07-2.54,0,0,7.47,1.27,13.75-2.3,1.03-.56,1.51-1.75,2.38-2.86,1.19-1.51,1.83-3.66,2.46-6.36,1.51-5.17-2.38-9.62-7.63-12.8-5.8-3.5-13.75-5.09-22.65-4.13-13.43,1.51-23.05,12.64-26.39,25.51-3.1,12.24-.48,26.39,10.81,36.72,9.62,8.82,19.31,11.37,27.98,10.81,16.53-1.11,29.17-12.48,29.41-12.72l.64-.48c7.95-6.52,13.35-11.84,18.28-18.36,142.98-189.23,369.88-311.63,625.08-311.63s482.19,122.39,625.16,311.63c4.93,6.52,10.33,11.84,18.28,18.36.08,0,.08.08.16.16h.08l.16.16.16.16c.32.24,12.95,11.6,29.41,12.72,8.66.56,18.44-1.99,28.06-10.81,11.29-10.33,13.91-24.48,10.73-36.72-3.34-12.88-12.95-24-26.31-25.51-8.9-.95-16.85.64-22.65,4.13-5.25,3.18-9.14,7.63-7.63,12.8.64,2.7,1.27,4.85,2.46,6.36.87,1.11,1.35,2.3,2.38,2.86,6.2,3.58,13.75,2.3,13.75,2.3,2.7-1.27,5.88-.08,7.07,2.54,1.27,2.7.08,5.88-2.54,7.15,0,0-7.07,4.69-16.13,5.72-2.7.32-5.48-.16-8.35-.79-5.96-1.27-11.52-5.17-16.29-12.24-1.35-1.99-2.38-4.45-3.42-7.23-4.13-12.24-.16-24.8,10.01-34.18,9.62-8.9,25.35-14.62,43.79-12.8Z"/>
  <path class="cls-5" d="M793.48,1003.91h1413.02c2.55,0,4.62-2.07,4.62-4.61s-2.07-4.61-4.62-4.61H793.48c-2.54,0-4.61,2.07-4.61,4.61s2.07,4.61,4.61,4.61h0Z"/>
  <path class="cls-5" d="M1500,1380.52h0c-266.77.13-531.76,32.36-800.32,106.99-2.46.68-3.89,3.23-3.21,5.68.68,2.45,3.23,3.89,5.67,3.2,267.73-74.4,531.91-106.52,797.87-106.66,265.95.13,530.13,32.26,797.86,106.66,2.46.68,5-.76,5.67-3.2.68-2.46-.75-5-3.2-5.68-268.56-74.63-533.55-106.86-800.33-106.99h0Z"/>
  <path class="cls-5" d="M1500,1012.82s325.84-.6,607.97-.61c88.81,0,173.3.06,241.92.14-1.37-1.55-2.68-3.2-3.93-4.95-3.57-5.36-6.74-8.74-10.11-10.17-4.68-2-8.74-1.16-10.31.72-1.11,1.34-1.96,2.42-1.29,3.29.93,1.19,2.59,2.1,4.08,1.18,1.56-1.2,3.8-.91,5.01.64,1.21,1.56.92,3.8-.64,5.01-4.54,4.33-11.09,3.13-15.2-.37-3.89-3.31-5.31-9.11-1.55-16.2,2.49-4.66,9.45-9.77,19.19-9.74,7.11.02,15.76,3.57,25.63,13.63,5.09,5.52,11.28,8.97,16.93,11.63,6.67,3.14,12.85,4.68,16.44,5.39l9.9.02c-6.2-2.74-11.98-5.68-17.33-8.91-13.21-7.97-23.68-17.01-31.89-27.24-1.36-1.37-1.35-3.58.02-4.94,1.37-1.36,3.58-1.35,4.94,0,9.31,7.55,20.58,13.15,33.76,18.17,7.54,2.87,15.65,5.38,24.45,7.71,11.56,3.06,39.02,10.75,52.82,13.07,17.64,2.97,63.36,11.23,66.42,19.01,2.96,7.51-17.41,7.73-23.94,7.73,0,0-189.92.38-405.32.37-282.13-.02-607.97-.61-607.97-.61,0,0-325.85.6-607.98.61-215.39,0-405.32-.37-405.32-.37-6.53,0-26.89-.22-23.94-7.73,3.06-7.78,48.78-16.04,66.42-19.01,13.8-2.32,41.26-10.01,52.83-13.07,8.8-2.33,16.9-4.84,24.44-7.71,13.19-5.01,24.45-10.62,33.77-18.17,1.36-1.36,3.57-1.37,4.93,0,1.37,1.36,1.37,3.57.02,4.94-8.21,10.23-18.68,19.27-31.89,27.24-5.35,3.23-11.13,6.17-17.33,8.91l9.9-.02c3.59-.71,9.78-2.25,16.45-5.39,5.65-2.66,11.84-6.11,16.93-11.63,9.86-10.06,18.52-13.61,25.63-13.63,9.74-.02,16.69,5.09,19.18,9.74,3.76,7.09,2.34,12.89-1.54,16.2-4.13,3.5-10.67,4.7-15.2.37-1.56-1.21-1.84-3.45-.64-5.01,1.21-1.56,3.45-1.84,5.01-.64,1.49.92,3.15.02,4.08-1.18.68-.87-.17-1.95-1.29-3.29-1.57-1.88-5.62-2.73-10.31-.72-3.37,1.43-6.53,4.82-10.11,10.17-1.25,1.75-2.56,3.4-3.93,4.95,68.63-.07,153.11-.14,241.92-.14,282.13.02,607.98.61,607.98.61h0Z"/>
  <path class="cls-5" d="M1500,1347.11c177.46-.17,348.2,13.8,507.58,40.12,180.83,29.85,347.03,75.5,492.03,133.23l17.92,7.32c5.93,2.41,22.29,8.27,19.65,14.4-2.63,6.13-36.84.42-64.54-3.96-12.88-2.04-41.42-4.51-52.74-5.7-8.38-.88-16.32-1.37-24.07-1.37-12.75-.03-24.58.9-36.13,3.86-1.8.68-3.81-.24-4.49-2.04-.68-1.8.25-3.81,2.05-4.49,11.5-5.76,23.7-9.84,37.24-12.3,5.73-1.03,11.64-1.69,17.78-2.07-4.86-1.69-9.72-3.36-14.61-5.02-3.5-.53-9.9-1.15-17.29-.25-6.06.73-12.85,2.08-19.22,5.84-11.87,6.5-21.12,7.91-28.06,6.49-10.23-2.1-15.96-8.69-17.03-14.03-1.49-7.58,1.32-12.85,5.82-15.17,5.07-2.61,11.87-2.16,15.04,3.44,1.14,1.61.76,3.83-.84,4.98-1.61,1.14-3.83.76-4.97-.84-1.13-1.28-2.91-.69-4.09.26-.95.78-.59,2.21.14,3.93.95,2.25,4.82,3.31,10.04,2.41,3.86-.67,8.12-3.13,13.22-7.33,1.69-1.3,3.41-2.48,5.15-3.54-108.83-34.5-226.95-62.57-352.1-83.3-158.1-26.18-327.43-40.68-503.48-40.88-176.06.21-345.38,14.7-503.49,40.88-125.14,20.73-243.26,48.8-352.09,83.3,1.74,1.06,3.46,2.25,5.14,3.54,5.11,4.2,9.36,6.66,13.22,7.33,5.22.9,9.1-.16,10.05-2.41.72-1.73,1.09-3.16.14-3.93-1.17-.95-2.96-1.54-4.09-.26-1.14,1.61-3.37,1.98-4.98.84-1.61-1.14-1.98-3.37-.84-4.98,3.16-5.6,9.97-6.06,15.04-3.44,4.49,2.32,7.3,7.59,5.81,15.17-1.06,5.34-6.8,11.93-17.02,14.03-6.95,1.42-16.21.02-28.07-6.49-6.37-3.76-13.16-5.11-19.22-5.84-7.39-.9-13.8-.28-17.29.25-4.88,1.66-9.75,3.34-14.6,5.02,6.13.38,12.04,1.03,17.77,2.07,13.54,2.46,25.74,6.53,37.25,12.3,1.8.68,2.72,2.69,2.04,4.49-.68,1.8-2.69,2.72-4.49,2.04-11.55-2.96-23.38-3.89-36.13-3.86-7.74,0-15.69.49-24.07,1.37-11.32,1.19-39.86,3.66-52.74,5.7-27.7,4.38-61.9,10.09-64.54,3.96-2.63-6.13,13.73-11.99,19.65-14.4l17.91-7.32c145.01-57.73,311.2-103.38,492.03-133.23,159.38-26.32,330.12-40.29,507.59-40.12h0Z"/>
  <path class="cls-5" d="M1500.15,1600.7h-.15c-1.62,0-2.93,1.3-2.93,2.92,0,0-4.32,55.7-6.99,104.21-.53,9.74-.92,19.17-1.2,27.79-.1,3.27-.19,6.42-.28,9.43-6.4-5.26-14.43-10.51-24.36-14.95-14.84-6.64-34.14-11.51-58.96-11.58-31.37-.04-63.48.18-90.68-4.72-17.41-3.14-32.78-8.22-43.9-17.8-.25-.27-.51-.52-.79-.77,0,0-3.72-3.46-9.27-10.93-4.98-8.14-6.32-16.47-5.05-23.8,1.37-7.91,5.21-14.79,11.09-18.12,2.45-1.38,5.04-2.54,7.92-2.46,4.51.06,8.16,1.49,10.16,4.16,2.19,2.9,3.59,6.54,1.08,8.88-.95.88-1.72,1.58-2.63,1.56-1.3-.02-2.84-.68-3.8-1.75-1.3-1.44-.68-3.19-2.31-3.75-1.66-.56-3.46.32-4.02,1.97-1.45,2.95,1.1,8.7,6.19,11.44,3.45,1.86,7.89,1.8,12.84-1.12,8.3-4.95,9.41-15.53,4.92-24.73-3.34-6.85-10.59-12.28-20.71-14.16-12.13-1.99-23.95,3.41-32.52,13.08-2.45,2.77-4.55,5.94-6.28,9.43-3.34-5.18-7.08-9.51-11.22-12.89-7.6-6.21-15.94-9.98-24.27-11.06-5.5-.7-10.82-.64-15.85.59-12.84,3.12-23.32,10.86-26.7,21.85-.76,1.57-.1,3.47,1.48,4.24,1.57.76,3.47.1,4.23-1.48,6.18-9.15,19.79-11.41,32.59-6.82,3.01,1.08,5.8,2.81,8.66,4.78,5.71,3.95,10.74,9.97,14.33,18.53,5.92,13.11,11.91,23.38,17.13,31.06,3.74,5.51,7.11,9.76,9.78,12.85.27.33.55.64.83.97.54.61,1.1,1.22,1.65,1.8,2.39,2.58,3.81,3.78,3.81,3.78.25.22.49.43.75.62,14.08,12.49,33.25,20.04,55.46,24.18,28.49,5.3,62.18,5.08,95.07,5.13,20.65-.02,36.74,3.82,49.11,9.28,25.38,11.2,34.25,28.96,34.65,29.77.06.13,5.52,10.7,10.99,10.71,5.46,0,10.93-10.55,10.99-10.71.45-.91,9.35-18.6,34.64-29.76,12.37-5.46,28.46-9.3,49.11-9.28,32.9-.05,66.58.18,95.07-5.13,22.21-4.14,41.38-11.68,55.47-24.18.25-.19.51-.4.75-.62,0,0,1.41-1.21,3.8-3.78.56-.59,1.11-1.19,1.65-1.8.28-.33.56-.64.83-.97,2.67-3.09,6.04-7.34,9.78-12.85,5.21-7.68,11.21-17.95,17.14-31.06,3.58-8.56,8.62-14.58,14.32-18.53,2.86-1.97,5.66-3.7,8.66-4.78,12.8-4.59,26.41-2.33,32.59,6.82.76,1.57,2.66,2.23,4.24,1.48,1.57-.76,2.23-2.66,1.47-4.24-3.39-10.98-13.86-18.73-26.7-21.85-5.02-1.22-10.35-1.29-15.84-.59-8.34,1.07-16.67,4.84-24.27,11.06-4.14,3.39-7.88,7.71-11.23,12.89-1.72-3.48-3.82-6.66-6.27-9.43-8.58-9.67-20.4-15.08-32.53-13.08-10.12,1.88-17.37,7.31-20.71,14.16-4.49,9.2-3.38,19.78,4.93,24.73,4.94,2.92,9.39,2.98,12.84,1.12,5.09-2.74,7.63-8.49,6.19-11.44-.56-1.65-2.37-2.54-4.02-1.97-1.6.55-2.48,2.24-2.03,3.85l.05.15c-.02-.06-.12-.16-.18-.22.03-.03.02-.06-.02-.07-.06-.02-.03.02.02.07-.07.09-.37.23-.47.37-.68.87-2.06,1.3-3.48,1.36-.91.05-1.68-.68-2.63-1.56-2.5-2.34-1.1-5.98,1.08-8.88,2-2.67,5.66-4.11,10.16-4.16,2.88-.07,5.47,1.08,7.92,2.46,5.87,3.33,9.71,10.21,11.09,18.12,1.27,7.34-.07,15.67-5.05,23.8-5.55,7.46-9.27,10.93-9.27,10.93-.28.25-.54.5-.79.77-11.12,9.58-26.47,14.66-43.89,17.8-27.2,4.9-59.31,4.68-90.68,4.72-24.82.07-44.11,4.94-58.95,11.58-9.94,4.44-17.96,9.69-24.37,14.95-.08-3-.17-6.16-.28-9.43-.28-8.62-.66-18.05-1.2-27.79-2.67-48.5-6.99-104.21-6.99-104.21,0-1.57-1.23-2.85-2.77-2.92h0ZM1789.57,1615.32s15.18-7.95,33.79-12.33c6.23-1.46,12.74-2.18,19.3-2.15,1.95,0,3.89.12,5.83.25,1.85.14,3.72.17,5.56.54,4.69.48,8.58,1.42,11.48,3.62,1.56,1.18,3.12,2.03,4.23,3.4,3.16,3.94,5.3,7.88,4.08,11.6-.77,1.22-.41,2.83.8,3.6,1.22.77,2.83.41,3.6-.8,5.75-5.51,6.15-15.4,1.85-25.39-2.04-4.76-5.88-8.73-10.76-12.47-2.75-2.11-6.12-3.5-9.79-4.94-4.82-1.37-9.74-2.23-14.69-2.05-6.99.26-13.89,2.02-20.32,4.71-6.3,2.64-12.04,5.9-17.15,9.53-13.01,9.24-21.14,18.85-21.14,18.85-1.1.92-1.26,2.56-.35,3.67.91,1.11,2.56,1.26,3.67.35h0ZM1213.75,1611.3s-8.13-9.62-21.14-18.85c-5.11-3.62-10.85-6.89-17.15-9.53-6.43-2.69-13.33-4.44-20.32-4.71-4.94-.18-9.87.68-14.68,2.05-3.67,1.44-7.05,2.82-9.8,4.94-4.88,3.74-8.71,7.71-10.76,12.47-4.29,9.99-3.89,19.88,1.85,25.39.77,1.22,2.38,1.57,3.6.8,1.22-.77,1.57-2.38.8-3.6-1.22-3.72.92-7.65,4.09-11.6,1.1-1.37,2.66-2.23,4.22-3.4,2.91-2.19,6.8-3.14,11.48-3.62,1.84-.37,3.71-.41,5.56-.54,1.95-.13,3.88-.25,5.83-.25,6.56-.03,13.07.68,19.3,2.15,18.61,4.38,33.79,12.33,33.79,12.33,1.11.91,2.76.76,3.67-.35.91-1.11.76-2.75-.35-3.67h0Z"/>
  <path class="cls-5" d="M1500,1402.34c1.34-.03,2.68-.02,4.01,0,268.14.34,520.26,35.13,739.77,95.98,13.55-2.27,25.94-1.73,36.85.98,33.01,8.2,53.84,35.75,55.18,70.12.41,25.03-8.77,44.55-22.71,57.22-16.56,15.07-39.21,20.84-58.51,15.74-18.26-4.99-27.9-17.26-29.72-29.6-2.2-14.89,6.06-29.96,24.01-30.73,1.92-.21,3.63,1.18,3.84,3.1.21,1.92-1.18,3.63-3.1,3.84-11.45,1.96-15.94,12-13.35,21.39,2.15,7.78,9.5,14.62,21.61,16.45,14.04,2.26,29.41-3.71,40.33-15.32,9.03-9.62,14.58-23.53,13.27-40.99-.76-14.71-6.72-27.51-16.71-36.23.57,1.61,1.04,3.26,1.4,4.92,1.04,4.89,1.5,9.74.93,14.54-1.38,11.6-6.35,22.18-15.16,28.21-1.58,1.46-4.04,1.37-5.5-.21-1.45-1.57-1.36-4.04.21-5.49,3.93-4.89,5.17-11.36,5-18.09-.1-3.62-1.15-7.12-2.41-10.68-1.65-4.67-4.7-8.77-8.61-12.44-3.7-3.47-8.54-6.09-14.59-7.63-6.75-1.71-14.87-1.96-24.51-.27-7.69,2.6-15.78,6.26-24.18,11.08-17.71,9.89-34.62,15.71-50.27,17.67-8.19,1.02-16.01,1.16-23.34.29-14.35-1.72-26.77-6.26-36.64-12.8-12.23-8.1-20.6-18.53-24.05-29.62-.77-1.76.03-3.82,1.8-4.59,1.76-.78,3.82.03,4.59,1.8,7.04,12.38,22.7,21.21,42.86,23.77,9.12,1.16,19.11.66,29.95-1.35,13.28-2.46,27.75-7.4,42.74-16.44,2.84-1.67,5.65-3.22,8.44-4.66-51.29-13.38-104.28-25.35-158.78-35.79,1.49,2.03,2.77,4.12,3.85,6.25,4.47,8.74,6.12,17.96,4.54,26.09-.55,2.79-1.2,5.48-2.46,7.88-5.06,9.62-13.89,16.51-26.2,15.06-1.92.12-3.58-1.34-3.7-3.26-.12-1.92,1.34-3.58,3.26-3.7,7.28-1.83,10.28-7.68,11.42-14.22,1.41-8-2.19-17.45-11.17-24.44-4.72-3.68-11.01-6.26-18.84-7.96-9.27-2.01-20.62-2.61-34.39-.52-16.65,2.13-33.6,4.58-49.96,5.23-11.95.48-23.52.14-34.37-1.39-21.42-3-39.79-10.02-52.56-24.02-1.42-1.3-1.52-3.5-.21-4.93,1.3-1.42,3.51-1.52,4.93-.21,13.14,10.05,30.02,12.65,48.9,12.41,10.08-.14,20.62-1.33,31.53-2.75,7.26-.95,14.65-2.03,22.07-3.21-111.43-16.86-228.21-27.5-348.74-31.12,7.78,4.2,15.63,9.09,23.32,14.8,28.16,20.87,54.52,52.52,69.45,100.6,9.9,32.15,7.39,69-5.96,99.39-14.46,32.9-41.33,58.16-77.76,63.18-20.85,2.72-38.04-1.43-51.2-9.36-17.14-10.34-27.62-26.8-30.89-42.4-2.68-13.56-.43-26.51,5.38-36.8,6.67-11.83,17.5-20.31,29.64-22.34,16.94-2.69,27.82,5.17,31.58,15.13,4.2,11.14.09,25.2-15.29,28.77-1.68.49-3.44-.46-3.93-2.14-.49-1.68.46-3.44,2.14-3.94,9.26-3.35,11.4-12.06,8.01-18.67-2.87-5.6-9.95-8.9-19.73-6.23-7.9,2.07-14.31,8.54-18.07,16.75-3.35,7.29-4.22,16.15-1.71,25.19,2.88,10.82,11.01,21.75,23.33,28.52,9.83,5.4,22.43,7.93,37.57,5.53,28.33-4.28,48.44-24.8,59.46-50.52,10.92-25.46,13.01-56.19,4.59-82.97-13.17-42.21-36.21-70.05-60.94-88.37-5.61-4.16-11.31-7.84-16.99-11.07,2.57,4.12,4.87,8.4,6.86,12.81,3.16,7.02,5.66,14.31,7.1,21.76,1.48,7.62,2.1,15.32,1.54,22.91-.83,11.52-3.71,22.69-9.44,32.81-5.25,9.25-12.45,17.54-22.25,24.37-1.32,1.14-3.32,1.02-4.47-.3-1.14-1.32-1.01-3.32.3-4.47,14.35-15.32,18.7-33.83,17.13-52.34-.52-6.04-1.8-12.01-3.54-17.95-1.71-5.82-3.99-11.52-6.78-17.02-5.49-10.83-13.11-20.71-22.33-28.66-8.5-7.35-18.41-13.04-29.29-16.05.41.58.82,1.14,1.24,1.69,5.53,7.26,11.86,12.24,17.23,18.28,6.74,7.65,11.76,17.6,13.55,28.44,1.68,10.15.76,20.99-3.77,31.2-3.52,7.64-7.53,14.18-11.71,19.77-8.19,10.94-16.67,17.85-20.04,23.26-3.69,5.9-4.79,11.37-3.53,15.9,1.52,5.41,5.66,9.47,10.63,10.16,4.95.7,8.77-.06,11.48-1.93,3.62-2.52,5.48-6.38,5.18-9.25-.29-2.79-1.63-5.29-3.66-6.83-2.1-1.61-4.76-2.45-7.37-1.53-1.57.65-3.39-.1-4.03-1.69-.65-1.57.1-3.38,1.69-4.03,4.62-2.19,9.7-1.37,13.88,1.18,3.93,2.41,6.87,6.6,7.92,11.57,1.14,5.33-1.04,13.2-7.35,18.65-4.2,3.62-10.35,6.01-18.78,5.71-9.04-.34-17.5-6.1-21.94-15.01-4.45,8.91-12.91,14.66-21.95,15.01-8.42.3-14.58-2.08-18.78-5.71-6.3-5.44-8.48-13.31-7.35-18.65,1.05-4.97,3.98-9.16,7.92-11.57,4.18-2.56,9.26-3.37,13.88-1.18,1.57.65,2.33,2.46,1.68,4.03-.64,1.58-2.45,2.34-4.03,1.69-2.61-.91-5.27-.08-7.37,1.53-2.03,1.55-3.37,4.05-3.66,6.83-.3,2.87,1.57,6.73,5.19,9.25,2.7,1.88,6.53,2.63,11.48,1.93,4.96-.69,9.1-4.74,10.62-10.16,1.27-4.54.16-10.01-3.53-15.9-3.35-5.41-11.84-12.32-20.04-23.26-4.18-5.59-8.19-12.13-11.71-19.77-4.51-10.21-5.44-21.05-3.77-31.2,1.79-10.83,6.81-20.78,13.56-28.44,5.37-6.04,11.69-11.02,17.22-18.28.42-.55.83-1.11,1.24-1.69-10.87,3-20.78,8.69-29.29,16.05-9.22,7.95-16.83,17.83-22.33,28.66-2.78,5.5-5.07,11.2-6.78,17.02-1.74,5.94-3.02,11.91-3.54,17.95-1.57,18.51,2.78,37.02,17.13,52.34,1.32,1.15,1.45,3.16.3,4.47-1.15,1.32-3.16,1.45-4.47.3-9.81-6.83-17-15.12-22.25-24.37-5.73-10.12-8.6-21.29-9.44-32.81-.55-7.59.07-15.28,1.54-22.91,1.44-7.45,3.93-14.74,7.1-21.76,1.99-4.41,4.28-8.69,6.86-12.81-5.67,3.23-11.37,6.91-16.99,11.07-24.73,18.32-47.77,46.16-60.93,88.37-8.42,26.78-6.33,57.5,4.59,82.97,11.02,25.71,31.15,46.24,59.46,50.52,15.15,2.4,27.75-.14,37.57-5.53,12.32-6.77,20.45-17.71,23.33-28.52,2.51-9.04,1.64-17.91-1.71-25.19-3.76-8.2-10.17-14.67-18.07-16.75-9.78-2.67-16.86.64-19.73,6.23-3.39,6.6-1.25,15.32,8.01,18.67,1.68.5,2.64,2.27,2.14,3.94-.49,1.68-2.26,2.63-3.93,2.14-15.38-3.57-19.49-17.63-15.29-28.77,3.76-9.97,14.64-17.82,31.59-15.13,12.14,2.03,22.96,10.51,29.64,22.34,5.8,10.29,8.06,23.24,5.37,36.8-3.27,15.6-13.75,32.06-30.88,42.4-13.16,7.93-30.36,12.08-51.2,9.36-36.44-5.02-63.3-30.29-77.76-63.18-13.36-30.39-15.87-67.25-5.97-99.39,14.93-48.08,41.29-79.73,69.45-100.6,7.7-5.71,15.54-10.6,23.32-14.8-120.53,3.62-237.32,14.26-348.74,31.12,7.42,1.18,14.81,2.26,22.07,3.21,10.92,1.42,21.45,2.62,31.53,2.75,18.88.25,35.76-2.35,48.9-12.41,1.42-1.3,3.63-1.21,4.93.21,1.3,1.42,1.21,3.63-.21,4.93-12.78,14-31.14,21.02-52.57,24.02-10.85,1.53-22.4,1.87-34.36,1.39-16.36-.65-33.32-3.1-49.97-5.23-13.77-2.09-25.11-1.49-34.39.52-7.83,1.7-14.12,4.28-18.84,7.96-8.97,6.99-12.57,16.44-11.17,24.44,1.15,6.54,4.14,12.39,11.42,14.22,1.92.12,3.39,1.78,3.26,3.7-.12,1.92-1.78,3.38-3.7,3.26-12.3,1.45-21.13-5.44-26.2-15.06-1.26-2.4-1.92-5.09-2.46-7.88-1.58-8.13.06-17.35,4.54-26.09,1.08-2.12,2.36-4.21,3.85-6.25-54.49,10.44-107.48,22.4-158.77,35.79,2.78,1.44,5.6,2.99,8.43,4.66,15.01,9.04,29.47,13.97,42.75,16.44,10.84,2.01,20.82,2.51,29.95,1.35,20.16-2.56,35.81-11.39,42.85-23.77.78-1.76,2.84-2.58,4.6-1.8,1.76.77,2.57,2.83,1.8,4.59-3.46,11.09-11.83,21.52-24.05,29.62-9.88,6.54-22.29,11.09-36.64,12.8-7.34.87-15.16.74-23.35-.29-15.64-1.96-32.56-7.77-50.27-17.67-8.41-4.82-16.48-8.48-24.18-11.08-9.63-1.69-17.76-1.44-24.5.27-6.06,1.54-10.9,4.16-14.6,7.63-3.9,3.66-6.96,7.77-8.61,12.44-1.25,3.56-2.31,7.06-2.4,10.68-.17,6.73,1.06,13.2,4.99,18.09,1.57,1.45,1.68,3.92.21,5.49-1.45,1.58-3.92,1.68-5.49.21-8.81-6.03-13.79-16.61-15.17-28.21-.56-4.8-.11-9.66.94-14.54.35-1.66.82-3.31,1.39-4.92-10,8.71-15.95,21.51-16.71,36.23-1.3,17.47,4.24,31.38,13.27,40.99,10.91,11.61,26.3,17.58,40.33,15.32,12.11-1.84,19.47-8.67,21.61-16.45,2.58-9.39-1.9-19.42-13.35-21.39-1.92-.21-3.3-1.92-3.1-3.84.21-1.92,1.92-3.31,3.84-3.1,17.96.76,26.21,15.83,24.02,30.73-1.83,12.33-11.47,24.61-29.72,29.6-19.3,5.09-41.96-.68-58.52-15.74-13.94-12.68-23.12-32.2-22.71-57.22,1.34-34.37,22.16-61.92,55.17-70.12,10.91-2.71,23.31-3.24,36.85-.98,219.51-60.85,471.64-95.63,739.78-95.98,1.33-.03,2.66-.04,4.01,0h0ZM1612.82,1500.47c7.65,8.02,13.26,16.17,17.41,24.57,2.15,4.35,3.54,8.64,4.61,12.93,1.7,6.82,1.84,13.42.91,19.55-.74,4.81-2.32,9.36-4.78,13.29-3.16,5.04-7.38,9.42-12.89,12.33-4.4,2.31-9.09,4.23-14.77,4.74-6.4.57-12.95.17-20.85-1.87-1.45,0-2.61-1.17-2.61-2.61s1.17-2.61,2.61-2.61c10.16-2.42,16.66-6.87,22.19-11.75,2.61-2.3,4.12-5.09,5.76-7.83,1.61-2.68,2.84-5.55,3.7-8.72,1.88-6.85,2.76-14.5,1.46-23.2-1.24-8.28-3.16-16.86-7.08-25.94-.79-1.2-.47-2.82.73-3.62,1.2-.8,2.82-.46,3.62.73h0ZM1387.18,1500.47c-7.65,8.02-13.26,16.17-17.41,24.57-2.15,4.35-3.54,8.64-4.62,12.93-1.7,6.82-1.84,13.42-.9,19.55.73,4.81,2.31,9.36,4.78,13.29,3.16,5.04,7.37,9.42,12.89,12.33,4.39,2.31,9.08,4.23,14.77,4.74,6.4.57,12.95.17,20.86-1.87,1.44,0,2.61-1.17,2.61-2.61s-1.17-2.61-2.61-2.61c-10.16-2.42-16.67-6.87-22.2-11.75-2.61-2.3-4.11-5.09-5.76-7.83-1.61-2.68-2.84-5.55-3.7-8.72-1.88-6.85-2.76-14.5-1.45-23.2,1.24-8.28,3.16-16.86,7.08-25.94.79-1.2.46-2.82-.74-3.62-1.2-.8-2.81-.46-3.61.73h0ZM1293,1491.9h-274.79c-4.08,0-12.37-.92-14.58,2.5-2.2,3.43,1.99,10.75,3.67,14.46,7.63,16.77,23.51,40.29,40.68,56.91,2.24,2.17,5.23,3.38,8.34,3.38h226.34c5.89,0,10.91-4.28,11.84-10.1,2.65-16.65,8.88-36.45,15.87-49.49h0c5.17-9.42,10.94-18.57,17.69-27.3,6.4-8.29,13.66-16.21,22.13-23.69,7.19-6.35,14.46-11.41,16.65-14.6,2.37-3.46-7.92-4.61-17.49-4.82-10.35-.23-25.31.96-34.05,3.08-9.83,2.39-21.12,6.13-35.45,13.81-10.33,5.71-19.34,9.41-27.15,11.95-12.66,4.11-22.04,5.11-28.79,5.43-3.8.23-7.95-.19-11.24-1.8-2.77-1.34-5.27-3.13-5.19-6.27.02-1.69.21-3.08,1.02-4.01.96-1.13,2.23-1.88,3.57-1.95,1.45-.1,2.95.07,3.89,1,.87.86,1.35,2.11,1.01,3.74-.41,1.43.42,2.92,1.84,3.32,1.42.41,2.92-.42,3.32-1.85,1.38-3.81.38-6.95-1.39-9.35-1.88-2.54-5.09-4-8.5-4.36-3.43-.37-6.97.81-9.87,3.23-2.37,1.97-4.04,5.04-4.82,9.25-1.08,6.23,1.61,11.34,5.94,15.39,4.98,4.66,12.91,7.26,20.31,7.82,7.77.49,18.69.86,33.61-2.55,9.01-2.06,19.38-5.71,31.43-11.35,8.89-4.29,16.88-7.18,23.83-9.13-.93,1.1-1.85,2.2-2.76,3.31-6.28,7.73-11.83,15.77-16.91,24.04h0ZM1707,1491.9h274.79c4.08,0,12.37-.92,14.58,2.5,2.21,3.43-1.98,10.75-3.67,14.46-7.63,16.77-23.51,40.29-40.68,56.91-2.24,2.17-5.23,3.38-8.34,3.38h-226.34c-5.89,0-10.91-4.28-11.83-10.1-2.66-16.65-8.89-36.45-15.87-49.49h0c-5.17-9.42-10.94-18.57-17.68-27.3-6.4-8.29-13.67-16.21-22.13-23.69-7.19-6.35-14.46-11.41-16.64-14.6-2.38-3.46,7.91-4.61,17.49-4.82,10.35-.23,25.31.96,34.04,3.08,9.84,2.39,21.12,6.13,35.45,13.81,10.34,5.71,19.35,9.41,27.15,11.95,12.66,4.11,22.05,5.11,28.8,5.43,3.8.23,7.95-.19,11.23-1.8,2.77-1.34,5.28-3.13,5.2-6.27-.02-1.69-.22-3.08-1.02-4.01-.97-1.13-2.23-1.88-3.58-1.95-1.45-.1-2.94.07-3.89,1-.87.86-1.35,2.11-1,3.74.41,1.43-.42,2.92-1.85,3.32-1.42.41-2.91-.42-3.31-1.85-1.38-3.81-.39-6.95,1.38-9.35,1.88-2.54,5.09-4,8.5-4.36,3.43-.37,6.97.81,9.87,3.23,2.38,1.97,4.05,5.04,4.82,9.25,1.08,6.23-1.61,11.34-5.94,15.39-4.98,4.66-12.91,7.26-20.3,7.82-7.76.49-18.69.86-33.62-2.55-9-2.06-19.38-5.71-31.43-11.35-8.89-4.29-16.89-7.18-23.84-9.13.94,1.1,1.85,2.2,2.76,3.31,6.29,7.73,11.84,15.77,16.91,24.04h0ZM1500,1442.26c-6.55,9.03-14.16,14.85-20.7,21.92-4.2,4.51-7.3,10.48-8.65,16.98-1.26,6.11-1.19,12.71,1.23,19.04,2.36,6.45,5.22,12.02,8.23,16.87,7.5,12.11,15.43,20.24,18.39,26.18.55,1.12,1.05,2.23,1.49,3.31.45-1.09.94-2.19,1.49-3.31,2.96-5.94,10.88-14.07,18.38-26.18,3-4.85,5.87-10.42,8.23-16.87,2.42-6.33,2.5-12.93,1.23-19.04-1.34-6.51-4.43-12.47-8.65-16.98-6.53-7.07-14.14-12.89-20.69-21.92h0ZM1266.69,1515.89h14.7c-3.48,9.27-6.49,19.48-8.65,29.29h-6.06v-29.29h0ZM1733.31,1515.89h-14.71c3.48,9.27,6.5,19.48,8.65,29.29h6.06v-29.29h0ZM1244.48,1545.18h12.98v-29.29h-12.98v29.29h0ZM1755.51,1545.18h-12.98v-29.29h12.98v29.29h0ZM1777.72,1545.18h-12.98v-29.29h12.98v29.29h0ZM1222.28,1545.18h12.98v-29.29h-12.98v29.29h0ZM1200.08,1545.18h12.98v-29.29h-12.98v29.29h0ZM1799.91,1545.18h-12.98v-29.29h12.98v29.29h0ZM1177.87,1545.18h12.98v-29.29h-12.98v29.29h0ZM1822.12,1545.18h-12.98v-29.29h12.98v29.29h0ZM1155.68,1515.89v29.29h12.98v-29.29h-12.98ZM1844.32,1515.89v29.29h-12.98v-29.29h12.98ZM1133.47,1545.18h12.98v-29.29h-12.98v29.29h0ZM1866.52,1545.18h-12.98v-29.29h12.98v29.29h0ZM1111.27,1545.18h12.98v-29.29h-12.98v29.29h0ZM1888.73,1545.18h-12.99v-29.29h12.99v29.29h0ZM1089.07,1545.18h12.98v-29.29h-12.98v29.29h0ZM1910.93,1545.18h-12.98v-29.29h12.98v29.29h0ZM1066.87,1515.89v29.29h12.98v-29.29h-12.98ZM1933.13,1515.89v29.29h-12.98v-29.29h12.98ZM1057.64,1515.89v25.36c-7.13-7.93-13.77-16.86-19.16-25.36h19.16ZM1942.35,1515.89v25.36c7.13-7.93,13.77-16.86,19.16-25.36h-19.16Z"/>
  <path class="cls-5" d="M791.66,985.79c-21,11.26-41.02,15.59-58.77,14.59-38.36-2.15-67.25-28.33-76.01-66.2-5.85-27.74.23-51.38,12.97-68.49,15.14-20.35,39.11-31.63,61.67-30.19,21.28,1.53,34.59,13.08,39.31,26.32,5.69,15.98-.28,34.41-19.97,39.19-1.84.56-3.79-.48-4.35-2.33-.56-1.84.48-3.79,2.33-4.35,13.07-4.76,16.29-17.53,11.24-28.03-4.19-8.71-14.23-15.34-28.9-14.92-16.85.36-33.63,10.48-43.87,26.39-8.49,13.18-12.04,30.65-6.72,50.78,4.76,19.59,16.97,34.73,33.87,41.94-2.72-3.35-4.94-6.99-6.6-10.84-7.58-17.64-5.52-38.21,6.15-50.55,1.27-1.72,3.71-2.09,5.44-.81,1.72,1.28,2.09,3.71.81,5.44-3.6,6.45-3.95,14.26-2.42,22.05.83,4.22,2.68,8.19,4.87,12.1,2.92,5.21,7.33,9.57,12.75,13.07,5.17,3.34,11.5,5.46,19.06,5.94,8.41.54,18.15-.99,29.3-5.25,8.19-4.65,16.57-10.57,25.07-17.87,17.75-14.92,35.5-25.04,52.63-30.65,8.94-2.92,17.68-4.76,26.06-5.41,16.4-1.28,31.31,1.07,43.8,6.13,15.48,6.26,27.19,16.07,33.58,27.66,1.09,1.59.68,3.76-.91,4.85-1.59,1.09-3.77.68-4.85-.91-10.62-12.85-30.46-20.11-54.2-18.92-10.79.54-22.25,3.12-34.33,7.75-14.55,5.57-29.89,14.22-44.99,27.51h662.04c-2-1.54-4.27-2.69-6.51-3.89-3.69-1.98-7.42-3.93-10.86-6.43-2.53-1.83-4.93-3.89-7.07-6.37-6.06-7.07-9.93-15.66-10.2-24.84-.25-8.2,1.88-16.85,7.42-24.84,3.64-5.07,10.18-12.2,15.01-18.61,1.89-2.51,3.66-4.7,4.36-6.63,1.12-3.08,1.53-5.63.64-7.61-1.04-2.33-2.91-4.05-5.02-4.18-1.98-.12-3.67.7-4.4,2.18-.84,1.72-.99,3.9.67,5.4,1.36,1.03,1.62,2.96.6,4.32-1.03,1.36-2.96,1.63-4.32.6-4.84-3.04-5.75-8.5-4.39-13.2,1.38-4.75,5.68-8.42,11.59-9.09,5.72-.65,11.93,2.39,15.79,8.15,2.74,4.09,3.85,9.81,2.5,17.13-.59,3.14-2.38,7.07-4.66,11.38-3.66,6.95-8.93,14.82-11.68,20.27-2.33,4.42-2.74,8.93-2.24,13.12.49,4.16,2.46,7.93,5.4,11,3,3.2,6.87,4.83,10.55,6.68,3.14,1.57,6.23,3.18,9.15,5.07l.55-.35c2.75-1.75,5.65-3.25,8.59-4.72,3.68-1.84,7.54-3.47,10.55-6.68,2.94-3.07,4.91-6.84,5.41-11,.49-4.19.08-8.7-2.25-13.12-2.75-5.45-8.02-13.32-11.68-20.27-2.27-4.31-4.08-8.24-4.66-11.38-1.35-7.32-.25-13.04,2.49-17.13,3.87-5.76,10.07-8.81,15.8-8.15,5.91.68,10.2,4.34,11.58,9.09,1.37,4.7.46,10.17-4.38,13.2-1.36,1.03-3.3.76-4.33-.6-1.03-1.36-.75-3.3.6-4.32,1.65-1.5,1.5-3.68.66-5.4-.72-1.48-2.42-2.3-4.39-2.18-2.12.13-3.99,1.85-5.03,4.18-.88,1.98-.48,4.52.64,7.61.7,1.93,2.46,4.12,4.36,6.63,4.82,6.41,11.37,13.54,15.01,18.61,5.54,7.99,7.67,16.64,7.42,24.84-.28,9.18-4.14,17.77-10.2,24.84-2.15,2.48-4.55,4.54-7.07,6.37-3.44,2.5-7.18,4.45-10.86,6.43-2.25,1.2-4.51,2.35-6.52,3.89h662.04c-15.09-13.29-30.43-21.94-44.98-27.51-12.09-4.63-23.56-7.21-34.33-7.75-23.75-1.19-43.59,6.06-54.2,18.92-1.09,1.59-3.27,1.99-4.85.91-1.59-1.09-2-3.26-.91-4.85,6.39-11.59,18.1-21.4,33.58-27.66,12.5-5.05,27.4-7.41,43.8-6.13,8.39.65,17.12,2.49,26.07,5.41,17.12,5.61,34.87,15.73,52.62,30.65,8.5,7.3,16.89,13.22,25.07,17.87,11.14,4.26,20.89,5.79,29.3,5.25,7.57-.49,13.89-2.61,19.06-5.94,5.43-3.51,9.83-7.86,12.76-13.07,2.19-3.91,4.04-7.88,4.86-12.1,1.54-7.8,1.18-15.61-2.42-22.05-1.28-1.73-.91-4.16.81-5.44,1.72-1.28,4.16-.91,5.44.81,11.67,12.33,13.73,32.9,6.14,50.55-1.65,3.85-3.88,7.49-6.6,10.84,16.9-7.21,29.11-22.35,33.87-41.94,5.31-20.13,1.76-37.6-6.73-50.78-10.23-15.9-27.01-26.03-43.87-26.39-14.66-.42-24.71,6.21-28.9,14.92-5.04,10.5-1.84,23.27,11.24,28.03,1.84.56,2.89,2.5,2.33,4.35-.56,1.84-2.5,2.89-4.35,2.33-19.69-4.78-25.66-23.21-19.96-39.19,4.71-13.24,18.03-24.8,39.3-26.32,22.56-1.45,46.53,9.84,61.67,30.19,12.74,17.11,18.82,40.76,12.98,68.49-8.76,37.86-37.65,64.04-76.02,66.2-17.75.99-37.77-3.33-58.77-14.59H791.66ZM1000.62,942.69c3.22,3.02,17.1,2.78,17.1,2.78h154.87c.34,0,6.08.14,10.2.14s8.12-1,9.1-2.97c2.5-5.04-9.43-16.01-9.87-16.58-11.3-14.46-15.8-32.05-14.29-49.07,1.53-17.19,9.23-33.81,22.43-46.07,3.72-3.48,15.37-13.29,13.5-18.03-1.88-4.74-16.89-3.47-21.99-3.47l-100.01-.25c-2.42,0-4.78.69-6.82,1.99-15.3,9.76-33.17,30.48-48.12,54.45-9.29,14.9-17.5,31-23.46,46.2-6.23-5.01-14.19-11.06-23.34-17.26-12.35-8.37-26.88-16.98-42.14-23.81-8.39-3.62-17.17-6.73-26.11-8.92-13.97-3.41-28.13-5.03-41.14-4.41-18.58.89-34.72,5.94-45.03,15.5-7.09,6.78-11.21,13.13-13.32,18.92-5.05,13.88.15,23.63.15,23.63.79,1.8,2.9,2.62,4.7,1.84,1.8-.79,2.62-2.9,1.84-4.71,0,0-2.11-7.28,2.96-16.35,2.3-4.12,6.22-8.39,12.38-12.69,8.84-6.36,21.83-7.87,36.22-7.02,11.25.66,23.28,3.2,35.14,6.98,7.61,2.42,15.13,5.35,22.25,8.84,13.81,6.54,26.84,14.8,38.01,22.63,20.63,14.46,34.8,27.71,34.8,27.71h0ZM1999.38,942.69c-3.22,3.02-17.1,2.78-17.1,2.78h-154.87c-.33,0-6.08.14-10.2.14s-8.11-1-9.1-2.97c-2.5-5.04,9.43-16.01,9.88-16.58,11.3-14.46,15.8-32.05,14.28-49.07-1.53-17.19-9.24-33.81-22.42-46.07-3.73-3.48-15.38-13.29-13.5-18.03,1.88-4.74,16.89-3.47,22-3.47l100-.25c2.42,0,4.78.69,6.83,1.99,15.29,9.76,33.16,30.48,48.12,54.45,9.3,14.9,17.5,31,23.46,46.2,6.24-5.01,14.19-11.06,23.34-17.26,12.36-8.37,26.88-16.98,42.15-23.81,8.38-3.62,17.17-6.73,26.11-8.92,13.96-3.41,28.14-5.03,41.13-4.41,18.58.89,34.73,5.94,45.03,15.5,7.1,6.78,11.21,13.13,13.32,18.92,5.05,13.88-.15,23.63-.15,23.63-.79,1.8-2.89,2.62-4.7,1.84-1.8-.79-2.63-2.9-1.84-4.71,0,0,2.11-7.28-2.96-16.35-2.3-4.12-6.22-8.39-12.38-12.69-8.85-6.36-21.83-7.87-36.23-7.02-11.25.66-23.27,3.2-35.14,6.98-7.61,2.42-15.13,5.35-22.25,8.84-13.81,6.54-26.85,14.8-38.01,22.63-20.63,14.46-34.79,27.71-34.79,27.71h0ZM1358.4,854.24c-14.02-14.53-29.49-26.78-47.17-34.14-11.31-4.7-23.43-7.12-36.41-6.95-7.96.1-16.17,1.53-24.73,3.87-23.41,7.2-39.52,20.39-48.58,35.76-11.33,19.22-11.89,41.99-2.24,62.05,7.53,14.93,21.75,23.88,36.69,25.54,16.33,1.8,32.83-4.33,40.57-17.05,7.26-12.37,6.82-23.99,1.82-32.02-6.16-9.88-18.19-15.13-29.54-8.52-2.3,1.09-3.28,3.85-2.19,6.14,1.09,2.3,3.85,3.28,6.14,2.19,5.99-2.23,11.36,1.16,13.53,6.4,1.85,4.44.51,10.14-4.12,15.79-4.94,6.22-14.26,7.12-22.86,5.4-7.68-1.53-15.09-6.03-18.62-14-5.98-12.89-5.31-27.28,1.87-39.58,6.45-11.05,17.95-20.42,34.61-25.93,10.05-3.75,19.65-5.39,28.94-5.38,6.85,0,13.47.62,19.99,2.14,17.1,3.98,33.08,12.33,48.16,23.09,1.33,1.14,3.33.99,4.47-.33,1.14-1.33.99-3.33-.33-4.47h0ZM1641.6,854.24c14.03-14.53,29.5-26.78,47.18-34.14,11.3-4.7,23.43-7.12,36.4-6.95,7.96.1,16.17,1.53,24.73,3.87,23.41,7.2,39.52,20.39,48.58,35.76,11.32,19.22,11.89,41.99,2.23,62.05-7.53,14.93-21.74,23.88-36.69,25.54-16.32,1.8-32.83-4.33-40.56-17.05-7.27-12.37-6.83-23.99-1.83-32.02,6.16-9.88,18.19-15.13,29.54-8.52,2.3,1.09,3.28,3.85,2.19,6.14-1.09,2.3-3.84,3.28-6.14,2.19-5.99-2.23-11.35,1.16-13.53,6.4-1.85,4.44-.51,10.14,4.12,15.79,4.94,6.22,14.25,7.12,22.85,5.4,7.69-1.53,15.09-6.03,18.62-14,5.99-12.89,5.31-27.28-1.87-39.58-6.45-11.05-17.94-20.42-34.6-25.93-10.06-3.75-19.65-5.39-28.95-5.38-6.85,0-13.47.62-19.99,2.14-17.1,3.98-33.08,12.33-48.16,23.09-1.32,1.14-3.32.99-4.47-.33-1.14-1.33-.99-3.33.33-4.47h0ZM1370.09,936.07s-2.49-7.39-7.38-16.89c-2.72-5.27-6.1-10.75-10.22-15.97-4.14-5.24-9.1-9.63-14.34-12.88-2.79-1.72-5.79-2.81-8.73-3.7-3.19-.65-6.21-1.18-9.07-.9-7.91.8-14.58,3.67-19.09,8.69-2.01,2.25-3.85,4.32-4.98,6.95-2.98,6.92-3.97,13.54-1.3,18.61.29,1.41,1.66,2.32,3.07,2.03,1.41-.29,2.32-1.67,2.03-3.08.31-3.91,4.04-6.93,8.48-9.77,1.88-1.19,4.13-1.3,6.49-1.82,2.59-.57,5.36.12,8.5,1.34,3.23.64,6.45,2.14,9.66,4.02,3.73,2.19,7.47,4.44,10.98,7.09,12.06,9.11,21.43,18.91,21.43,18.91.73,1.24,2.33,1.65,3.57.92,1.24-.73,1.65-2.33.92-3.57h0ZM1629.9,936.07s2.49-7.39,7.39-16.89c2.71-5.27,6.09-10.75,10.22-15.97,4.14-5.24,9.1-9.63,14.34-12.88,2.78-1.72,5.79-2.81,8.73-3.7,3.18-.65,6.2-1.18,9.07-.9,7.9.8,14.58,3.67,19.08,8.69,2.01,2.25,3.85,4.32,4.98,6.95,2.98,6.92,3.98,13.54,1.31,18.61-.29,1.41-1.67,2.32-3.08,2.03-1.41-.29-2.32-1.67-2.03-3.08-.3-3.91-4.04-6.93-8.47-9.77-1.88-1.19-4.12-1.3-6.49-1.82-2.59-.57-5.36.12-8.5,1.34-3.23.64-6.45,2.14-9.66,4.02-3.73,2.19-7.47,4.44-10.98,7.09-12.06,9.11-21.42,18.91-21.42,18.91-.73,1.24-2.33,1.65-3.57.92-1.24-.73-1.66-2.33-.93-3.57h0ZM1121.82,834.42v87.06h12.98v-87.09l-12.98.03h0ZM1068.2,851.43c-4.38,5.17-8.74,10.97-12.98,17.12v52.93h12.98v-70.05h0ZM1107.89,834.45l-8.27.02v87h12.98v-87.04h-4.71ZM1090.39,834.5c-3.01,0-4.8,0-4.8,0-2.68,1.97-5.41,4.32-8.18,6.99v79.98h12.98v-86.98h0ZM1045.99,882.86c-4.73,7.83-9.13,15.94-12.98,23.99v14.64h12.98v-38.63h0ZM1909.6,834.5c3.01,0,4.8,0,4.8,0,2.68,1.97,5.41,4.32,8.18,6.99v79.98h-12.98v-86.98h0ZM1892.1,834.45l8.27.02v87h-12.98v-87.04h4.71ZM1931.81,851.43c4.37,5.17,8.74,10.97,12.98,17.12v52.93h-12.98v-70.05h0ZM1878.17,834.42v87.06h-12.98v-87.09l12.98.03h0ZM1954,882.86c4.73,7.83,9.13,15.94,12.98,23.99v14.64h-12.98v-38.63h0ZM1144.02,896.43v25.05h7.3c-3.65-8.06-6.06-16.5-7.3-25.05h0ZM1855.97,896.43v25.05h-7.3c3.65-8.06,6.06-16.5,7.3-25.05h0ZM1144.02,869.08c1.74-12.16,5.81-23.99,12.05-34.75,0,0-4.87.02-12.05.03v34.72h0ZM1855.97,869.08c-1.74-12.16-5.81-23.99-12.05-34.75,0,0,4.87.02,12.05.03v34.72h0ZM907.4,850.5s-16.73-15.58-37.64-26.08c-4.83-2.42-9.86-4.36-14.96-5.87-5.71-1.69-11.48-2.39-17-2.58-5.41.24-10.31.68-14.58,1.92-9,2.64-15.66,6.8-20.23,11.8-3,3.28-5.4,6.49-6.78,10.08-3.93,10.28-2.89,20.12,1.73,26.04.63,1.3,2.19,1.84,3.48,1.21,1.3-.63,1.84-2.19,1.21-3.49-1.34-5.3,1.52-12.02,7.76-17.6,3.58-3.19,8.77-4.7,15.7-6.01,3.62-.68,7.69-1.29,12.36-1.3,3.88-.36,7.95-.18,12.13.32,6.7.79,13.49,2.09,19.99,3.85,18.57,5.05,33.9,12.02,33.9,12.02,1.19.81,2.81.5,3.62-.69.8-1.18.5-2.81-.69-3.62h0ZM2092.59,850.5s16.73-15.58,37.64-26.08c4.83-2.42,9.87-4.36,14.96-5.87,5.72-1.69,11.49-2.39,17.01-2.58,5.4.24,10.31.68,14.58,1.92,9,2.64,15.66,6.8,20.23,11.8,3,3.28,5.4,6.49,6.78,10.08,3.93,10.28,2.9,20.12-1.72,26.04-.64,1.3-2.19,1.84-3.49,1.21-1.3-.63-1.84-2.19-1.2-3.49,1.34-5.3-1.53-12.02-7.76-17.6-3.58-3.19-8.77-4.7-15.69-6.01-3.62-.68-7.69-1.29-12.37-1.3-3.88-.36-7.95-.18-12.12.32-6.7.79-13.49,2.09-20,3.85-18.57,5.05-33.91,12.02-33.91,12.02-1.18.81-2.81.5-3.62-.69-.81-1.18-.5-2.81.68-3.62h0ZM1427.46,810.33c-4.25,4.58-10.48,7.64-17.2,10.4-5.71,2.35-11.64,3.53-16.97,4.47-3.43.62-6.45.9-8.69.44-2.27-.04-4.32-.04-5.91-.98-1.21-.71-2.73-.53-3.46-1.58-1.68-2.43-3.46-4.76-2.26-8.27.89-1.13.71-2.77-.42-3.66-1.13-.9-2.77-.71-3.66.42-5.01,3.03-6.4,7.25-7.45,11.8-.33,1.4.02,2.67.04,4.1.04,1.78.73,3.27,1.31,5.02,1.71,5.17,6.27,9.17,12.1,12.19,2.01,1.04,4.36,1.5,6.8,1.99,2.71.26,5.97.36,9.48-.44,5.06-1.15,10.89-3.33,16.49-6.87,10.44-6.6,20.13-16.06,24.21-26.26.77-1.22.4-2.83-.82-3.6-1.22-.76-2.83-.4-3.59.83h0ZM1572.53,810.33c4.25,4.58,10.49,7.64,17.2,10.4,5.71,2.35,11.64,3.53,16.98,4.47,3.43.62,6.45.9,8.68.44,2.27-.04,4.32-.04,5.91-.98,1.21-.71,2.73-.53,3.45-1.58,1.69-2.43,3.46-4.76,2.27-8.27-.9-1.13-.71-2.77.41-3.66,1.13-.9,2.77-.71,3.66.42,5.02,3.03,6.4,7.25,7.46,11.8.33,1.4-.02,2.67-.05,4.1-.04,1.78-.73,3.27-1.3,5.02-1.72,5.17-6.28,9.17-12.1,12.19-2.01,1.04-4.36,1.5-6.79,1.99-2.72.26-5.97.36-9.49-.44-5.05-1.15-10.89-3.33-16.48-6.87-10.44-6.6-20.13-16.06-24.22-26.26-.76-1.22-.4-2.83.82-3.6,1.22-.76,2.83-.4,3.59.83h0ZM1603.11,709.12c.11-.22.23-.45.35-.67,1.03-1.81,2.46-3.26,4.13-4.28,1.67-1.03,3.61-1.67,5.68-1.77.26-.02.52-.02.78-.02h145.18c-2.43-1.33-4.87-2.63-7.3-3.91-23.47-12.38-46.76-22.61-68.81-31.19-11.4-4.43-22.44-8.44-33.03-12,1.27,1.41,2.48,2.85,3.61,4.32,7.77,10.13,11.89,21.54,6.31,32.66-.68,1.61-2.54,2.35-4.16,1.67-1.61-.68-2.36-2.54-1.68-4.16,3.1-8.77-1.54-16.64-8.2-23.49-13.53-13.93-36.55-23.1-36.55-23.1-3.49-1.62-22.06-10.45-20.84-14.11,1.22-3.65,21.84-.96,25.61-.17,22.29,3.86,48.27,9.66,75.96,18.76,23.34,7.68,47.85,17.68,72.47,30.04,44.38,22.29,88.89,52.64,127.62,91.82,3.44,3.5,10.39,12.01,8.49,16.54-1.9,4.53-12.27,4.2-17.18,4.2l-299.62-.08c-4.2,0-13.03.55-15.24-3.03-2.21-3.58,2.53-10.76,4.41-14.51l32-63.51h0ZM1396.9,709.12c-.11-.22-.23-.45-.36-.67-1.03-1.81-2.46-3.26-4.13-4.28-1.67-1.03-3.61-1.67-5.68-1.77-.25-.02-.52-.02-.78-.02h-145.18c2.44-1.33,4.87-2.63,7.3-3.91,23.46-12.38,46.75-22.61,68.81-31.19,11.39-4.43,22.44-8.44,33.03-12-1.28,1.41-2.49,2.85-3.62,4.32-7.77,10.13-11.89,21.54-6.31,32.66.69,1.61,2.55,2.35,4.16,1.67,1.61-.68,2.36-2.54,1.68-4.16-3.1-8.77,1.54-16.64,8.2-23.49,13.53-13.93,36.55-23.1,36.55-23.1,3.49-1.62,22.06-10.45,20.84-14.11-1.22-3.65-21.83-.96-25.61-.17-22.28,3.86-48.27,9.66-75.96,18.76-23.34,7.68-47.84,17.68-72.46,30.04-44.39,22.29-88.89,52.64-127.63,91.82-3.44,3.5-10.39,12.01-8.49,16.54,1.9,4.53,12.28,4.2,17.19,4.2l299.61-.08c4.2,0,13.03.55,15.24-3.03,2.21-3.58-2.53-10.76-4.41-14.51l-31.99-63.51h0ZM1609.27,750.43v15.51h-7.74s7.74-15.51,7.74-15.51h0ZM1390.72,750.43v15.51h7.75s-7.75-15.51-7.75-15.51h0ZM1368.52,726.36v39.58h12.98v-33.97l-2.81-5.61h-10.17ZM1631.48,726.36v39.58h-12.98v-33.97l2.8-5.61h10.18ZM1346.32,726.36v39.57h12.98v-39.57h-12.98ZM1653.68,726.36v39.57h-12.98v-39.57h12.98ZM1324.12,726.36v39.56h12.98v-39.56h-12.98ZM1675.88,726.36v39.56h-12.98v-39.56h12.98ZM1301.91,726.36v39.56h12.98s0-39.56,0-39.56h-12.98ZM1698.08,726.36v39.56h-12.98s0-39.56,0-39.56h12.98ZM1279.71,726.36v39.56h12.98v-39.56h-12.98ZM1720.29,726.36v39.56h-12.98v-39.56h12.98ZM1257.51,726.36v39.55h12.98v-39.55h-12.98ZM1742.48,726.36v39.55h-12.98v-39.55h12.98ZM1235.3,726.36v39.54h12.98s0-39.54,0-39.54h-12.98ZM1764.69,726.36v39.54h-12.98s0-39.54,0-39.54h12.98ZM1213.1,726.36v39.53h12.98s0-39.53,0-39.53h-12.98ZM1786.9,726.36v39.53h-12.99s0-39.53,0-39.53h12.99ZM1190.9,733.03v32.86h12.98v-39.53h-3.12c-3.3,2.18-6.58,4.4-9.86,6.67h0ZM1809.09,733.03v32.86h-12.98v-39.53h3.12c3.3,2.18,6.58,4.4,9.85,6.67h0ZM1181.68,739.59c-4.36,3.19-8.69,6.45-12.98,9.82v16.47h12.98v-26.29h0ZM1818.32,739.59c4.36,3.19,8.69,6.45,12.98,9.82v16.47h-12.98v-26.29h0ZM1159.47,756.85c-3.54,2.94-7.07,5.95-10.55,9.03h10.55s0-9.03,0-9.03h0ZM1840.52,756.85c3.55,2.94,7.07,5.95,10.55,9.03h-10.55s0-9.03,0-9.03h0ZM1499.77,707.73c-4.71-.2-9.35-6.33-9.54-6.58l-27.14-35.93c-2.38-3.02-3.02-7.07-1.68-10.68,1.34-3.62,4.46-6.27,8.24-7.01,0,0,2.94-.33,5.79-2.83,1.78-1.55,3.79-3.5,5.12-6.57,1.41-3.2.83-7.23-1.21-10.21-2.14-3.13-5.13-6.06-8.89-4.74-2.92,1.01-4.55,2.89-4.59,5.03-.05,2.6.95,5.55,3.47,5.12,1.64-.45,3.34.52,3.79,2.16.45,1.64-.52,3.35-2.16,3.79-6.68,2.56-12.58-3.19-13.88-10.36-1.03-5.65,1.44-11.93,8.58-16.12,8.82-5.13,18.39-1.4,25.28,5.51,6.64,6.65,9.31,16.9,7.18,25.77-1.68,6.7-4.9,11.51-8.09,15.19-.56.65-1.14,1.26-1.72,1.84l11.68,14.2,11.67-14.2c-.58-.57-1.15-1.18-1.72-1.84-3.2-3.68-6.41-8.49-8.1-15.19-2.13-8.87.55-19.12,7.18-25.77,6.88-6.91,16.45-10.63,25.27-5.51,7.15,4.19,9.61,10.47,8.58,16.12-1.3,7.17-7.19,12.92-13.87,10.36-1.65-.44-2.61-2.15-2.17-3.79.45-1.65,2.15-2.62,3.8-2.16,2.51.43,3.51-2.52,3.47-5.12-.04-2.15-1.67-4.02-4.59-5.03-3.74-1.32-6.74,1.61-8.89,4.74-2.03,2.98-2.62,7.01-1.21,10.21,1.33,3.07,3.35,5.02,5.12,6.57,2.85,2.5,5.79,2.83,5.79,2.83,3.78.74,6.91,3.39,8.24,7.01,1.34,3.61.7,7.66-1.69,10.68l-27.13,35.93c-.18.25-4.83,6.38-9.55,6.58h-.45Z"/>
  <path class="cls-4" d="M1430.45,919.25c.51.16,1.01.28,1.5.35,2.6.38,5.36.11,8.2-3.22,1.05-1.23,2.61-3.01,3.67-4.95,1.26-2.34,1.87-4.9,1.58-7.41-.21-1.92-.98-3.6-2.03-5.09.29-2.81.77-5.14.99-8.5.21-3.19.06-5.86-.05-10.45-.21-9.38-.13-11.95,3.29-18.99,2.72-5.6,8.63-12.95,15-19.06,5.72-5.49,12.8-10.32,18.64-12.72,7.87-3.23,13.38-4.13,13.38-4.13,2.33-.36,4.36-1.81,5.45-3.92h0s42.97-82.73,50.26-99.12c7.26-16.36,17.55-39.66,24.38-55.53,4.58-10.63,6.98-17.97,7.82-22.02.76-3.67.34-6.08-.06-7.21-.99-2.75-2.83-4.09-4.68-4.78-1.88-.69-4.74-1.08-7.85,1.38-.61.49-2.54,2.63-5.15,6.21-7.88,10.82-25.84,37.43-37.86,56.61-12.2,19.43-48.71,79.02-55.13,90.72-6.07,11.06-13.09,21.89-19.27,28.6-10.53,11.43-20.78,24.82-26.22,28.01-2.9,1.69-5.48,2.04-8.49,2.42-4.34.53-9.32.98-16.12,2.94-10.82,3.13-25.85,9.74-33.84,27.27-9.52,20.89-3.58,29.82-1.65,34.96,1.8,4.78,10.92,15.59,23.12,18.38,11.25,2.58,17.68,1.38,28.49-2.85,4.28-1.68,8.73-5.6,12.64-7.91h0ZM1412.85,872.44c.22.05,1.38.38,1.71.51,7.34,2.75,9.43,11.56,5.48,19.91-4.76,10.06-16.03,16.55-25.45,13.92-8.18-2.29-10.65-11.52-6.52-20.25,4.65-9.83,15.51-16.25,24.78-14.08h0Z"/>
  <path class="cls-2" d="M1437.81,900.53c.23-3.78.88-6.35,1.15-10.45.2-3.05.04-5.59-.06-9.98-.23-10.62-.04-13.5,3.83-21.48,2.94-6.05,9.26-14.01,16.13-20.6,6.23-5.98,13.98-11.21,20.32-13.81,8.58-3.52,14.6-4.47,14.6-4.47.64-.1,1.19-.5,1.49-1.07,0,0,42.85-82.47,50.12-98.82,7.25-16.34,17.53-39.62,24.35-55.47,4.36-10.14,6.69-17.13,7.49-20.98.45-2.18.38-3.61.14-4.28-.31-.87-.88-1.31-1.46-1.53-.64-.23-1.58-.28-2.63.55-.5.4-1.99,2.22-4.12,5.15-7.84,10.75-25.7,37.23-37.66,56.29-12.15,19.38-48.56,78.79-54.96,90.44-6.31,11.49-13.62,22.7-20.04,29.68-10.96,11.89-21.79,25.69-27.47,29.01-3.61,2.11-6.8,2.65-10.55,3.11-4.11.51-8.84.91-15.27,2.77-9.7,2.81-23.26,8.61-30.42,24.32-8.39,18.41-3.22,26.27-1.52,30.81,1.49,3.95,9.18,12.7,19.27,15.01,9.99,2.29,15.7,1.14,25.31-2.62,4.74-1.86,9.68-6.6,13.84-8.59.64-.3,1.07.02,1.47.2.55.25,1.06.45,1.57.52,1.06.15,2.16-.02,3.31-1.38.86-1,2.17-2.43,3.03-4.01.72-1.34,1.13-2.79.97-4.23-.13-1.12-.67-2.07-1.33-2.91-.19-.25-.4-.49-.59-.72-.1-.13-.26-.37-.31-.46h0ZM1414.97,867.39c11.34,3.17,15.68,15.67,9.95,27.78-5.91,12.48-20.12,20.08-31.8,16.81-11.34-3.17-15.67-15.66-9.94-27.77,5.9-12.48,20.11-20.08,31.79-16.82h0Z"/>
  <path class="cls-4" d="M1491.73,817.72h0c1.09,2.36,3.32,3.98,5.91,4.28h0s11.61,1.34,21.56,5.21c5.8,2.26,9.93,6.14,15.78,11.37,6.25,5.6,14.49,15.04,15.91,20.78,1.61,6.45.46,9.22-.6,18.9-1.45,13.12,3.45,27.51,11.62,36.46,11.92,13.04,28.21,12.14,37.68,10.79,2.11-.3,3.44-.53,4.46-.14.8.32,1.18,1.08,1.87,1.88,3.77,4.36,12.61,12.71,20.39,15.54,4.48,1.62,9.55,3.36,13.96,3.95,4.39.6,8.31.06,11.29-1.57,4.67-2.53,6.36-6.37,6.45-9.96.14-4.97-3.31-10.39-9.55-12.1-4.02-1.1-8.91-1.57-15.05-3.93-3.86-1.49-6.17-4.34-6.95-7.06-.56-1.97-.3-4.3-.05-6.96.37-3.89.95-8.29,1.03-13.17.1-5.84-.17-12.65-2.63-18.91-7.25-18.36-24.34-26.79-38.55-28.12-4.76-.44-8.27-.74-11.06-1.22-3.05-.52-4.96-1.22-6.9-3.05-4.88-4.58-16.13-20.07-25-28.14-8.24-7.49-11.67-12.95-17.99-23.59-6.8-11.43-43.25-75.68-55.12-95.22-9.55-15.76-26.88-42.62-34.64-53.63-2.68-3.8-4.74-6.05-5.4-6.53-3.35-2.46-6.23-1.83-8.03-1.04-1.81.79-3.63,2.24-4.43,5.18-.29,1.06-.49,3.32.26,6.68.86,3.78,3.02,10.54,6.3,20.04,5.7,16.53,16.64,44.47,24.57,60.77,7.8,16.05,42.9,92.53,42.9,92.53h0ZM1584.5,869.54c7.72-2.45,15.51,3.32,17.85,12.18,2.46,9.24-1.56,19.07-9.62,21.63-7.72,2.45-15.51-3.32-17.85-12.17-2.46-9.24,1.56-19.07,9.62-21.64h0Z"/>
  <path class="cls-2" d="M1496.65,815.47c.29.64.91,1.08,1.61,1.17,0,0,12.33,1.43,22.89,5.54,6.38,2.48,11.01,6.64,17.43,12.38,7,6.27,15.96,17.06,17.56,23.51,1.76,7.09.69,10.14-.48,20.79-1.27,11.59,3.02,24.31,10.24,32.21,10.4,11.37,24.68,10.26,32.92,9.08,3.41-.49,5.56-.45,7.2.18,1.58.62,2.64,1.8,3.99,3.38,3.37,3.9,11.19,11.46,18.15,13.99,4.12,1.49,8.77,3.13,12.83,3.68,3.1.41,5.89.18,7.99-.96,2.55-1.38,3.58-3.4,3.63-5.36.08-2.81-2.03-5.75-5.58-6.72-4.16-1.14-9.2-1.66-15.57-4.11-5.74-2.21-9.04-6.57-10.2-10.62-.73-2.54-.56-5.54-.23-8.97.36-3.77.93-8.02,1.01-12.74.09-5.2-.06-11.27-2.26-16.83-6.39-16.18-21.5-23.55-34.02-24.72-12.32-1.15-16.57-1.41-21.16-5.71-4.86-4.57-16.07-20.03-24.92-28.08-8.68-7.9-12.34-13.63-19-24.83-6.79-11.42-43.24-75.65-55.09-95.18-9.51-15.66-26.73-42.37-34.45-53.32-2.13-3.02-3.66-4.91-4.18-5.29-1.12-.82-2.07-.7-2.67-.44-.56.25-1.11.71-1.37,1.64-.17.65-.14,2.02.32,4.07.83,3.67,2.95,10.24,6.14,19.47,5.65,16.37,16.48,44.04,24.32,60.17,7.8,16.05,42.96,92.63,42.96,92.63h0ZM1582.86,864.39c10.51-3.34,21.52,3.89,24.72,15.94,3.23,12.15-2.61,24.82-13.22,28.18-10.51,3.33-21.52-3.89-24.72-15.94-3.23-12.14,2.61-24.81,13.22-28.17h0Z"/>
  <path class="cls-4" d="M1494.55,772.45c-4.77,1.52-7.41,6.61-5.9,11.38,1.51,4.77,6.61,7.42,11.38,5.9,4.77-1.51,7.41-6.61,5.9-11.38-1.52-4.76-6.61-7.41-11.38-5.9h0ZM1500.25,777.06c.83.6,1.47,1.47,1.8,2.52.83,2.63-.62,5.45-3.26,6.29-.17.06-.34.1-.52.13l1.97-8.94h0ZM1496.29,776.18l-1.96,8.94c-.83-.6-1.48-1.47-1.81-2.52-.83-2.63.63-5.45,3.26-6.29.17-.06.34-.1.52-.13h0Z"/>
  <text class="cls-3" transform="translate(1072.27 702.96) rotate(-38.33)"><tspan x="0" y="0">H</tspan></text>
  <text class="cls-3" transform="translate(1116.7 668.4) rotate(-33.55)"><tspan x="0" y="0">a</tspan></text>
  <text class="cls-3" transform="translate(1162.51 638.85) rotate(-29.84)"><tspan x="0" y="0">i</tspan></text>
  <text class="cls-3" transform="translate(1189.6 623.25) rotate(-26.1)"><tspan x="0" y="0">r</tspan></text>
  <text class="cls-3" transform="translate(1238.69 599.68) rotate(-21.45)"><tspan x="0" y="0">c</tspan></text>
  <text class="cls-3" transform="translate(1287.41 580.91) rotate(-16.79)"><tspan x="0" y="0">u</tspan></text>
  <text class="cls-3" transform="translate(1339.56 565.66) rotate(-12.23)"><tspan x="0" y="0">t</tspan></text>
  <text class="cls-3" transform="translate(1388.68 555.38) rotate(-7.83)"><tspan x="0" y="0">s</tspan></text>
  <text class="cls-3" transform="translate(1439.67 549.02) rotate(-4.4)"><tspan x="0" y="0"> </tspan></text>
  <text class="cls-3" transform="translate(1467.38 546.79) rotate(-.88)"><tspan x="0" y="0">a</tspan></text>
  <text class="cls-3" transform="translate(1521.55 546.29) rotate(3.87)"><tspan x="0" y="0">n</tspan></text>
  <text class="cls-3" transform="translate(1578.43 550.58) rotate(8.7)"><tspan x="0" y="0">d</tspan></text>
  <text class="cls-3" transform="translate(1632.78 559.65) rotate(12.31)"><tspan x="0" y="0"> </tspan></text>
  <text class="cls-3" transform="translate(1659.94 565.52) rotate(15.76)"><tspan x="0" y="0">s</tspan></text>
  <text class="cls-3" transform="translate(1708.93 579.64) rotate(20.45)"><tspan x="0" y="0">h</tspan></text>
  <text class="cls-3" transform="translate(1761.51 599.73) rotate(25.27)"><tspan x="0" y="0">a</tspan></text>
  <text class="cls-3" transform="translate(1807.67 621.84) rotate(29.63)"><tspan x="0" y="0">v</tspan></text>
  <text class="cls-3" transform="translate(1852.82 647.99) rotate(34.06)"><tspan x="0" y="0">e</tspan></text>
  <text class="cls-3" transform="translate(1894.29 676.46) rotate(38.45)"><tspan x="0" y="0">s</tspan></text>
  <text class="cls-3" transform="translate(1091.92 1807.28) rotate(32.6)"><tspan x="0" y="0">e</tspan></text>
  <text class="cls-3" transform="translate(1138.95 1836.69) rotate(28.18)"><tspan x="0" y="0">s</tspan></text>
  <text class="cls-3" transform="translate(1188.77 1862.73) rotate(23.77)"><tspan x="0" y="0">t</tspan></text>
  <text class="cls-3" transform="translate(1234.63 1882.63) rotate(19.64)"><tspan x="0" y="0">a</tspan></text>
  <text class="cls-3" transform="translate(1291.13 1902.13) rotate(14.88)"><tspan x="0" y="0">b</tspan></text>
  <text class="cls-3" transform="translate(1349.13 1916.8) rotate(10.4)"><tspan x="0" y="0">l</tspan></text>
  <text class="cls-3" transform="translate(1400.68 1925.57) rotate(6.94)"><tspan x="0" y="0">i</tspan></text>
  <text class="cls-3" transform="translate(1435.94 1929.73) rotate(3.37)"><tspan x="0" y="0">s</tspan></text>
  <text class="cls-3" transform="translate(1492.25 1932.55) rotate(-1.21)"><tspan x="0" y="0">h</tspan></text>
  <text class="cls-3" transform="translate(1553.91 1930.53) rotate(-5.77)"><tspan x="0" y="0">e</tspan></text>
  <text class="cls-3" transform="translate(1608.92 1924.47) rotate(-10.33)"><tspan x="0" y="0">d</tspan></text>
  <text class="cls-3" transform="translate(1667.13 1912.97) rotate(-13.95)"><tspan x="0" y="0"> </tspan></text>
  <text class="cls-3" transform="translate(1698.15 1905.24) rotate(-17.55)"><tspan x="0" y="0">2</tspan></text>
  <text class="cls-3" transform="translate(1754.8 1886.67) rotate(-22.28)"><tspan x="0" y="0">0</tspan></text>
  <text class="cls-3" transform="translate(1809.71 1863.5) rotate(-27)"><tspan x="0" y="0">2</tspan></text>
  <text class="cls-3" transform="translate(1862.52 1835.9) rotate(-31.7)"><tspan x="0" y="0">4</tspan></text>
</svg>