<?xml version="1.0" encoding="UTF-8"?>
<svg xmlns="http://www.w3.org/2000/svg" version="1.1" viewBox="0 0 3000 2400">
  <defs>
    <style>
      .cls-1, .cls-2, .cls-3 {
        fill-rule: evenodd;
      }

      .cls-1, .cls-4 {
        fill: #6abd45;
      }

      .cls-2 {
        fill: #071b22;
      }

      .cls-3 {
        fill: #f7ec13;
      }

      .cls-5 {
        fill: #3bb54a;
      }

      .cls-4 {
        stroke: #000;
        stroke-miterlimit: 10;
        stroke-width: 11px;
      }
    </style>
  </defs>
  <!-- Generator: Adobe Illustrator 28.6.0, SVG Export Plug-In . SVG Version: 1.2.0 Build 709)  -->
  <g>
    <g id="Layer_1">
      <path class="cls-5" d="M1494.08,1954.12c-346.16,0-664.78-158.83-874.16-435.78-8.33-11.1-17.3-20.59-29.21-30.77,55.69-20.01,106.31-41.18,151.21-73.05,176.12,238.06,456,379.65,752.16,379.65s576.16-141.59,752.27-379.65c44.88,31.84,95.51,53.03,151.2,73.06-11.74,10.02-20.8,19.58-29.22,30.81-209.35,276.9-528.02,435.73-874.26,435.73Z"/>
      <path class="cls-3" d="M1500.22,1593.61h-.22c-2.37-.01-4.29,1.91-4.29,4.28,0,0-6.32,81.56-10.24,152.58-.78,14.27-1.35,28.07-1.76,40.69-.15,4.78-.28,9.4-.41,13.8-9.37-7.7-21.12-15.38-35.67-21.89-21.73-9.72-49.98-16.85-86.32-16.96-45.93-.06-92.94.27-132.77-6.91-25.5-4.6-47.99-12.03-64.27-26.06-.36-.4-.74-.77-1.15-1.13,0,0-5.45-5.07-13.57-16-7.3-11.92-9.25-24.11-7.39-34.85,2-11.58,7.63-21.66,16.23-26.53,3.58-2.02,7.38-3.71,11.59-3.61,6.6.08,11.95,2.19,14.88,6.1,3.2,4.25,5.26,9.58,1.58,13-1.38,1.29-2.51,2.32-3.85,2.28-1.91-.03-4.15-.99-5.56-2.56-1.9-2.11-.99-4.68-3.39-5.49-2.43-.81-5.06.47-5.89,2.89-2.12,4.32,1.61,12.73,9.07,16.75,5.05,2.72,11.56,2.63,18.79-1.64,12.15-7.25,13.78-22.74,7.2-36.21-4.89-10.03-15.51-17.98-30.33-20.74-17.76-2.92-35.07,4.99-47.62,19.15-3.58,4.05-6.67,8.7-9.19,13.8-4.89-7.59-10.37-13.92-16.43-18.88-11.12-9.1-23.34-14.62-35.54-16.19-8.05-1.02-15.85-.93-23.2.86-18.79,4.57-34.14,15.91-39.1,31.99-1.11,2.3-.14,5.09,2.16,6.2,2.3,1.11,5.07.14,6.19-2.16,9.04-13.39,28.98-16.71,47.71-9.98,4.41,1.58,8.49,4.12,12.68,7.01,8.36,5.78,15.72,14.59,20.98,27.13,8.67,19.19,17.44,34.24,25.09,45.48,5.48,8.06,10.4,14.29,14.31,18.82.4.48.8.94,1.21,1.42.79.9,1.61,1.78,2.42,2.64,3.5,3.77,5.57,5.54,5.57,5.54.36.33.72.63,1.11.91,20.62,18.29,48.69,29.34,81.2,35.4,41.72,7.76,91.05,7.44,139.2,7.51,30.23-.02,53.8,5.6,71.91,13.59,37.16,16.4,50.16,42.41,50.74,43.59.08.19,8.09,15.66,16.09,15.68,7.99,0,16-15.45,16.09-15.69.66-1.34,13.7-27.23,50.73-43.58,18.12-7.99,41.67-13.61,71.91-13.59,48.17-.07,97.48.26,139.2-7.51,32.51-6.06,60.58-17.11,81.22-35.4.37-.28.74-.58,1.11-.91,0,0,2.06-1.77,5.56-5.54.83-.86,1.63-1.75,2.42-2.64.41-.48.81-.94,1.21-1.42,3.91-4.53,8.84-10.75,14.33-18.82,7.63-11.24,16.41-26.29,25.09-45.48,5.25-12.53,12.61-21.34,20.97-27.13,4.19-2.89,8.29-5.42,12.68-7.01,18.75-6.73,38.67-3.41,47.71,9.98,1.12,2.3,3.9,3.27,6.2,2.16,2.3-1.12,3.27-3.9,2.15-6.2-4.96-16.08-20.3-27.42-39.1-31.99-7.35-1.79-15.15-1.89-23.19-.86-12.21,1.57-24.41,7.09-35.54,16.19-6.06,4.96-11.54,11.29-16.44,18.88-2.53-5.1-5.6-9.75-9.18-13.8-12.56-14.16-29.87-22.08-47.63-19.15-14.81,2.76-25.44,10.71-30.33,20.74-6.57,13.48-4.95,28.97,7.21,36.21,7.23,4.27,13.74,4.36,18.79,1.64,7.45-4.01,11.17-12.43,9.07-16.75-.83-2.42-3.47-3.71-5.89-2.89-2.34.8-3.63,3.28-2.98,5.63l.07.22c-.03-.09-.17-.23-.27-.33.05-.05.03-.08-.03-.11-.08-.02-.05.02.03.11-.1.13-.54.34-.69.53-.99,1.28-3.01,1.9-5.1,1.99-1.34.07-2.47-.99-3.85-2.28-3.67-3.42-1.62-8.75,1.58-13,2.93-3.91,8.29-6.02,14.88-6.1,4.21-.1,8.01,1.58,11.6,3.61,8.6,4.88,14.22,14.95,16.23,26.53,1.86,10.74-.1,22.94-7.4,34.85-8.12,10.93-13.57,16-13.57,16-.41.36-.79.73-1.15,1.13-16.28,14.02-38.76,21.46-64.26,26.06-39.83,7.18-86.84,6.85-132.78,6.91-36.34.11-64.59,7.24-86.31,16.96-14.56,6.5-26.3,14.19-35.68,21.89-.12-4.4-.26-9.02-.41-13.8-.41-12.63-.97-26.43-1.76-40.69-3.91-71.02-10.24-152.58-10.24-152.58,0-2.29-1.8-4.17-4.06-4.28h0ZM1923.98,1615.02s22.23-11.64,49.48-18.05c9.12-2.14,18.65-3.19,28.27-3.14,2.85.01,5.69.17,8.53.37,2.71.2,5.45.24,8.15.79,6.87.7,12.56,2.08,16.82,5.3,2.28,1.72,4.57,2.97,6.19,4.98,4.62,5.77,7.76,11.53,5.97,16.98-1.13,1.78-.59,4.14,1.18,5.27,1.78,1.13,4.14.6,5.27-1.18,8.43-8.06,9.01-22.54,2.71-37.17-2.99-6.97-8.61-12.78-15.76-18.26-4.03-3.1-8.96-5.12-14.34-7.23-7.05-2-14.27-3.27-21.51-3-10.23.38-20.34,2.96-29.76,6.89-9.23,3.86-17.63,8.65-25.11,13.95-19.05,13.52-30.95,27.6-30.95,27.6-1.62,1.35-1.85,3.75-.51,5.38,1.34,1.63,3.75,1.85,5.38.51h0ZM1080.87,1609.13s-11.9-14.08-30.95-27.6c-7.48-5.31-15.88-10.09-25.11-13.95-9.41-3.93-19.52-6.51-29.76-6.89-7.23-.27-14.45,1-21.49,3-5.38,2.11-10.32,4.13-14.35,7.23-7.15,5.48-12.75,11.29-15.76,18.26-6.28,14.63-5.7,29.1,2.71,37.17,1.13,1.78,3.49,2.3,5.27,1.18,1.78-1.13,2.3-3.49,1.18-5.27-1.79-5.45,1.35-11.21,5.98-16.98,1.61-2.01,3.9-3.26,6.18-4.98,4.26-3.21,9.96-4.6,16.82-5.3,2.7-.55,5.43-.59,8.15-.79,2.85-.2,5.68-.36,8.53-.37,9.61-.05,19.14,1,28.27,3.14,27.25,6.41,49.48,18.05,49.48,18.05,1.63,1.34,4.04,1.12,5.38-.51,1.34-1.63,1.12-4.03-.51-5.38h0Z"/>
      <path class="cls-3" d="M1500,1272.42c1.97-.05,3.92-.03,5.88.01,392.61.5,761.77,51.44,1083.18,140.53,19.84-3.32,37.98-2.54,53.96,1.43,48.34,12.01,78.83,52.34,80.8,102.67.59,36.65-12.85,65.23-33.26,83.79-24.24,22.06-57.42,30.51-85.67,23.05-26.73-7.31-40.85-25.28-43.51-43.34-3.22-21.81,8.87-43.87,35.16-44.99,2.8-.3,5.32,1.73,5.62,4.54.3,2.8-1.73,5.32-4.54,5.62-16.77,2.87-23.33,17.57-19.55,31.32,3.14,11.39,13.91,21.4,31.64,24.09,20.55,3.3,43.07-5.43,59.05-22.44,13.22-14.08,21.34-34.45,19.43-60.02-1.12-21.54-9.83-40.29-24.47-53.04.84,2.36,1.52,4.77,2.05,7.2,1.52,7.16,2.2,14.27,1.36,21.3-2.01,16.99-9.3,32.48-22.2,41.31-2.32,2.14-5.91,2-8.05-.31-2.13-2.3-1.99-5.91.31-8.04,5.75-7.16,7.56-16.63,7.32-26.49-.14-5.31-1.69-10.43-3.53-15.64-2.41-6.84-6.88-12.85-12.6-18.21-5.42-5.08-12.5-8.91-21.37-11.17-9.88-2.5-21.77-2.86-35.89-.4-11.26,3.81-23.1,9.17-35.41,16.22-25.93,14.49-50.69,23.01-73.6,25.87-12,1.5-23.45,1.7-34.18.42-21.02-2.51-39.19-9.17-53.65-18.75-17.91-11.86-30.16-27.13-35.21-43.37-1.13-2.58.05-5.6,2.63-6.73,2.58-1.14,5.6.05,6.73,2.63,10.31,18.13,33.23,31.06,62.76,34.81,13.36,1.7,27.98.97,43.86-1.98,19.45-3.61,40.62-10.83,62.58-24.07,4.15-2.44,8.27-4.71,12.36-6.82-75.11-19.6-152.69-37.11-232.49-52.4,2.18,2.98,4.06,6.04,5.64,9.15,6.55,12.8,8.96,26.3,6.64,38.2-.8,4.08-1.76,8.03-3.61,11.54-7.41,14.08-20.34,24.17-38.36,22.05-2.8.17-5.24-1.96-5.42-4.77-.17-2.82,1.96-5.25,4.77-5.42,10.66-2.68,15.05-11.24,16.72-20.82,2.06-11.72-3.21-25.54-16.35-35.78-6.91-5.39-16.12-9.17-27.58-11.66-13.57-2.94-30.19-3.82-50.35-.76-24.38,3.12-49.2,6.7-73.15,7.66-17.5.7-34.43.2-50.32-2.04-31.36-4.39-58.26-14.67-76.96-35.17-2.08-1.9-2.22-5.13-.31-7.22,1.91-2.08,5.14-2.22,7.22-.31,19.24,14.72,43.95,18.53,71.6,18.17,14.76-.2,30.19-1.94,46.16-4.03,10.62-1.4,21.45-2.98,32.32-4.7-163.15-24.68-334.15-40.26-510.63-45.56,11.39,6.14,22.88,13.31,34.14,21.67,41.23,30.56,79.83,76.9,101.68,147.3,14.5,47.07,10.82,101.03-8.73,145.53-21.17,48.17-60.51,85.16-113.86,92.51-30.52,3.98-55.69-2.09-74.97-13.71-25.09-15.14-40.44-39.24-45.23-62.08-3.92-19.85-.63-38.81,7.88-53.88,9.76-17.33,25.62-29.73,43.39-32.71,24.81-3.93,40.74,7.56,46.25,22.16,6.16,16.31.13,36.9-22.39,42.13-2.46.72-5.04-.68-5.76-3.13-.72-2.46.67-5.04,3.13-5.77,13.56-4.9,16.7-17.66,11.73-27.34-4.2-8.19-14.57-13.03-28.89-9.12-11.57,3.04-20.95,12.51-26.45,24.52-4.9,10.67-6.18,23.65-2.5,36.89,4.21,15.84,16.12,31.85,34.15,41.77,14.4,7.9,32.84,11.61,55.01,8.1,41.47-6.26,70.93-36.32,87.07-73.97,15.99-37.28,19.05-82.27,6.73-121.48-19.28-61.8-53.02-102.57-89.23-129.39-8.22-6.09-16.56-11.47-24.88-16.21,3.77,6.03,7.13,12.3,10.04,18.76,4.63,10.28,8.29,20.96,10.39,31.86,2.16,11.16,3.07,22.42,2.26,33.54-1.22,16.86-5.43,33.22-13.82,48.04-7.68,13.55-18.22,25.68-32.57,35.68-1.93,1.68-4.86,1.49-6.55-.44-1.68-1.93-1.48-4.86.44-6.55,21-22.42,27.38-49.53,25.08-76.63-.76-8.84-2.63-17.58-5.18-26.28-2.5-8.52-5.84-16.86-9.93-24.91-8.04-15.86-19.19-30.33-32.69-41.96-12.45-10.76-26.95-19.1-42.88-23.5.59.85,1.2,1.68,1.82,2.48,8.1,10.62,17.36,17.92,25.23,26.77,9.87,11.21,17.22,25.78,19.84,41.64,2.46,14.86,1.11,30.73-5.52,45.69-5.15,11.18-11.02,20.76-17.14,28.94-11.99,16.02-24.41,26.14-29.34,34.06-5.4,8.64-7.02,16.64-5.17,23.29,2.22,7.92,8.29,13.86,15.56,14.87,7.25,1.02,12.85-.08,16.8-2.83,5.29-3.69,8.03-9.34,7.59-13.55-.42-4.08-2.39-7.74-5.35-10.01-3.07-2.36-6.97-3.58-10.79-2.25-2.3.95-4.96-.15-5.9-2.47-.95-2.3.15-4.95,2.47-5.9,6.76-3.2,14.21-2.01,20.32,1.73,5.76,3.53,10.05,9.67,11.59,16.94,1.66,7.81-1.52,19.33-10.76,27.3-6.14,5.31-15.15,8.8-27.5,8.36-13.23-.5-25.62-8.93-32.13-21.97-6.52,13.04-18.9,21.47-32.14,21.97-12.34.44-21.34-3.05-27.5-8.36-9.23-7.97-12.42-19.49-10.76-27.3,1.54-7.27,5.83-13.42,11.59-16.94,6.12-3.75,13.56-4.93,20.33-1.73,2.3.95,3.41,3.6,2.46,5.9-.94,2.32-3.58,3.42-5.9,2.47-3.82-1.34-7.72-.12-10.79,2.25-2.97,2.27-4.93,5.92-5.35,10.01-.44,4.2,2.29,9.86,7.6,13.55,3.96,2.75,9.55,3.85,16.8,2.83,7.26-1.01,13.32-6.95,15.55-14.87,1.86-6.64.23-14.65-5.17-23.29-4.91-7.92-17.34-18.04-29.34-34.06-6.12-8.18-11.99-17.76-17.14-28.94-6.61-14.95-7.97-30.83-5.52-45.69,2.62-15.86,9.97-30.43,19.85-41.64,7.87-8.84,17.12-16.14,25.22-26.77.62-.8,1.22-1.63,1.82-2.48-15.92,4.4-30.42,12.73-42.88,23.5-13.5,11.64-24.65,26.1-32.69,41.96-4.07,8.05-7.42,16.4-9.93,24.91-2.55,8.69-4.42,17.43-5.18,26.28-2.3,27.1,4.07,54.21,25.08,76.63,1.93,1.69,2.13,4.62.44,6.55-1.69,1.93-4.62,2.12-6.54.44-14.36-10-24.89-22.13-32.58-35.68-8.39-14.81-12.59-31.18-13.82-48.04-.8-11.11.1-22.38,2.26-33.54,2.11-10.9,5.76-21.59,10.39-31.86,2.91-6.46,6.27-12.73,10.04-18.76-8.31,4.74-16.65,10.12-24.88,16.21-36.21,26.82-69.95,67.59-89.22,129.39-12.32,39.2-9.26,84.19,6.71,121.48,16.14,37.65,45.61,67.7,87.07,73.97,22.18,3.51,40.62-.2,55.01-8.1,18.04-9.92,29.94-25.93,34.15-41.77,3.68-13.24,2.4-26.22-2.5-36.89-5.5-12.01-14.88-21.48-26.45-24.52-14.33-3.91-24.68.93-28.89,9.12-4.97,9.67-1.83,22.44,11.73,27.34,2.46.73,3.86,3.32,3.13,5.77-.72,2.46-3.31,3.85-5.76,3.13-22.52-5.23-28.53-25.81-22.39-42.13,5.5-14.59,21.44-26.09,46.26-22.16,17.77,2.98,33.62,15.38,43.39,32.71,8.5,15.07,11.8,34.03,7.87,53.88-4.79,22.84-20.13,46.94-45.22,62.08-19.27,11.61-44.45,17.69-74.97,13.71-53.36-7.35-92.69-44.35-113.86-92.51-19.56-44.5-23.24-98.46-8.74-145.53,21.87-70.4,60.45-116.74,101.68-147.3,11.28-8.36,22.75-15.52,34.14-21.67-176.48,5.3-347.48,20.88-510.63,45.56,10.87,1.72,21.69,3.3,32.32,4.7,15.99,2.08,31.41,3.83,46.16,4.03,27.65.36,52.37-3.44,71.6-18.17,2.08-1.91,5.32-1.77,7.22.31,1.91,2.08,1.77,5.32-.3,7.22-18.71,20.49-45.59,30.78-76.97,35.17-15.88,2.23-32.8,2.73-50.31,2.04-23.96-.95-48.78-4.54-73.16-7.66-20.16-3.06-36.77-2.19-50.35.76-11.46,2.49-20.67,6.27-27.58,11.66-13.14,10.24-18.41,24.07-16.35,35.78,1.69,9.58,6.06,18.14,16.72,20.82,2.82.18,4.96,2.61,4.77,5.42-.17,2.82-2.61,4.95-5.42,4.77-18,2.12-30.94-7.97-38.36-22.05-1.85-3.51-2.8-7.46-3.6-11.54-2.32-11.91.08-25.4,6.64-38.2,1.58-3.11,3.46-6.17,5.63-9.15-79.78,15.29-157.38,32.8-232.47,52.4,4.07,2.11,8.19,4.38,12.35,6.82,21.97,13.23,43.15,20.46,62.6,24.07,15.87,2.94,30.49,3.68,43.86,1.98,29.52-3.75,52.44-16.68,62.75-34.81,1.14-2.58,4.15-3.77,6.74-2.63,2.57,1.13,3.76,4.14,2.63,6.73-5.06,16.25-17.32,31.51-35.21,43.37-14.46,9.58-32.64,16.23-53.65,18.75-10.74,1.28-22.19,1.08-34.19-.42-22.9-2.86-47.68-11.38-73.6-25.87-12.31-7.05-24.14-12.42-35.41-16.22-14.1-2.47-26-2.11-35.88.4-8.88,2.26-15.95,6.09-21.38,11.17-5.71,5.36-10.19,11.37-12.6,18.21-1.83,5.21-3.39,10.33-3.51,15.64-.26,9.86,1.56,19.33,7.31,26.49,2.3,2.13,2.46,5.74.31,8.04-2.13,2.32-5.74,2.46-8.04.31-12.91-8.83-20.19-24.32-22.21-41.31-.83-7.03-.16-14.14,1.37-21.3.51-2.43,1.2-4.84,2.04-7.2-14.64,12.75-23.36,31.5-24.47,53.04-1.9,25.58,6.21,45.94,19.43,60.02,15.98,17,38.51,25.74,59.05,22.44,17.74-2.69,28.51-12.7,31.64-24.09,3.78-13.74-2.78-28.44-19.55-31.32-2.8-.3-4.83-2.82-4.54-5.62.3-2.8,2.82-4.84,5.62-4.54,26.3,1.12,38.38,23.18,35.17,44.99-2.68,18.06-16.79,36.03-43.51,43.34-28.25,7.46-61.43-.99-85.68-23.05-20.41-18.56-33.85-47.14-33.25-83.79,1.96-50.33,32.44-90.66,80.78-102.67,15.98-3.97,34.13-4.75,53.96-1.43,321.42-89.09,690.58-140.03,1083.19-140.53,1.94-.05,3.9-.06,5.88-.01h0ZM1665.19,1416.11c11.19,11.74,19.41,23.67,25.49,35.97,3.14,6.37,5.18,12.65,6.75,18.93,2.49,9.98,2.7,19.65,1.33,28.63-1.08,7.04-3.4,13.71-7.01,19.46-4.63,7.38-10.8,13.79-18.88,18.05-6.44,3.39-13.31,6.19-21.63,6.94-9.37.84-18.96.24-30.54-2.73-2.12,0-3.82-1.71-3.82-3.82s1.71-3.82,3.82-3.82c14.87-3.55,24.39-10.05,32.49-17.2,3.82-3.36,6.03-7.45,8.44-11.46,2.36-3.92,4.15-8.12,5.42-12.77,2.75-10.03,4.04-21.24,2.14-33.97-1.82-12.13-4.63-24.69-10.37-37.98-1.16-1.76-.69-4.13,1.07-5.29,1.76-1.16,4.13-.68,5.3,1.07h0ZM1334.81,1416.11c-11.19,11.74-19.42,23.67-25.48,35.97-3.14,6.37-5.19,12.65-6.76,18.93-2.49,9.98-2.69,19.65-1.31,28.63,1.07,7.04,3.39,13.71,7.01,19.46,4.63,7.38,10.79,13.79,18.88,18.05,6.42,3.39,13.3,6.19,21.62,6.94,9.37.84,18.97.24,30.55-2.73,2.11,0,3.82-1.71,3.82-3.82s-1.71-3.82-3.82-3.82c-14.88-3.55-24.4-10.05-32.5-17.2-3.82-3.36-6.02-7.45-8.44-11.46-2.35-3.92-4.15-8.12-5.42-12.77-2.75-10.03-4.04-21.24-2.13-33.97,1.82-12.13,4.62-24.69,10.37-37.98,1.16-1.76.67-4.13-1.08-5.29-1.76-1.16-4.12-.68-5.28,1.07h0ZM1196.9,1403.56h-402.35c-5.97,0-18.12-1.35-21.35,3.67-3.22,5.02,2.91,15.73,5.38,21.17,11.17,24.55,34.42,58.99,59.57,83.33,3.28,3.18,7.66,4.95,12.22,4.95h331.41c8.62,0,15.98-6.27,17.34-14.79,3.89-24.38,13-53.37,23.24-72.46h0c7.58-13.79,16.02-27.18,25.9-39.97,9.37-12.14,20-23.74,32.4-34.69,10.53-9.3,21.18-16.71,24.38-21.38,3.47-5.07-11.59-6.75-25.61-7.06-15.15-.34-37.05,1.41-49.85,4.52-14.4,3.5-30.92,8.97-51.91,20.22-15.13,8.36-28.32,13.78-39.75,17.49-18.54,6.02-32.27,7.48-42.16,7.95-5.56.34-11.64-.28-16.45-2.63-4.05-1.97-7.72-4.58-7.6-9.18.03-2.48.31-4.5,1.49-5.87,1.41-1.65,3.26-2.75,5.23-2.86,2.12-.14,4.32.1,5.69,1.47,1.27,1.26,1.98,3.1,1.48,5.47-.61,2.09.62,4.27,2.7,4.86,2.08.59,4.27-.62,4.86-2.71,2.01-5.59.56-10.18-2.04-13.69-2.75-3.72-7.45-5.85-12.45-6.38-5.02-.54-10.21,1.19-14.45,4.72-3.47,2.89-5.91,7.38-7.05,13.55-1.58,9.12,2.36,16.61,8.7,22.54,7.3,6.82,18.9,10.62,29.73,11.45,11.37.72,27.36,1.26,49.21-3.74,13.2-3.01,28.38-8.37,46.02-16.62,13.02-6.28,24.72-10.51,34.89-13.37-1.36,1.61-2.71,3.22-4.04,4.84-9.19,11.31-17.33,23.09-24.76,35.2h0ZM1803.09,1403.56h402.35c5.97,0,18.12-1.35,21.35,3.67,3.23,5.02-2.9,15.73-5.38,21.17-11.17,24.55-34.42,58.99-59.57,83.33-3.28,3.18-7.66,4.95-12.22,4.95h-331.41c-8.62,0-15.98-6.27-17.33-14.79-3.9-24.38-13.01-53.37-23.24-72.46h-.01c-7.58-13.79-16.01-27.18-25.89-39.97-9.37-12.14-20.02-23.74-32.41-34.69-10.53-9.3-21.18-16.71-24.37-21.38-3.48-5.07,11.58-6.75,25.61-7.06,15.15-.34,37.05,1.41,49.84,4.52,14.41,3.5,30.92,8.97,51.91,20.22,15.14,8.36,28.34,13.78,39.75,17.49,18.54,6.02,32.28,7.48,42.17,7.95,5.56.34,11.64-.28,16.44-2.63,4.05-1.97,7.73-4.58,7.61-9.18-.04-2.48-.33-4.5-1.49-5.87-1.42-1.65-3.26-2.75-5.24-2.86-2.12-.14-4.31.1-5.69,1.47-1.27,1.26-1.98,3.1-1.47,5.47.59,2.09-.62,4.27-2.71,4.86-2.08.59-4.26-.62-4.85-2.71-2.02-5.59-.57-10.18,2.02-13.69,2.76-3.72,7.45-5.85,12.45-6.38,5.02-.54,10.21,1.19,14.45,4.72,3.48,2.89,5.92,7.38,7.05,13.55,1.58,9.12-2.36,16.61-8.7,22.54-7.3,6.82-18.9,10.62-29.72,11.45-11.37.72-27.37,1.26-49.22-3.74-13.18-3.01-28.38-8.37-46.01-16.62-13.02-6.28-24.73-10.51-34.9-13.37,1.37,1.61,2.71,3.22,4.04,4.84,9.2,11.31,17.34,23.09,24.76,35.2h0ZM1500,1330.87c-9.59,13.22-20.74,21.74-30.3,32.1-6.16,6.61-10.69,15.34-12.66,24.87-1.85,8.95-1.75,18.61,1.8,27.88,3.46,9.45,7.65,17.61,12.04,24.71,10.99,17.73,22.6,29.64,26.93,38.33.8,1.64,1.54,3.26,2.19,4.85.65-1.59,1.37-3.21,2.19-4.85,4.33-8.69,15.93-20.6,26.92-38.33,4.4-7.1,8.59-15.26,12.04-24.71,3.55-9.27,3.65-18.93,1.8-27.88-1.96-9.53-6.49-18.26-12.66-24.87-9.57-10.36-20.7-18.88-30.29-32.1h0ZM1158.38,1438.68h21.53c-5.1,13.58-9.51,28.52-12.66,42.88h-8.87v-42.88h0ZM1841.62,1438.68h-21.54c5.1,13.58,9.52,28.52,12.66,42.88h8.88v-42.88h0ZM1125.87,1481.56h19v-42.88h-19v42.88h0ZM1874.12,1481.56h-19v-42.88h19v42.88h0ZM1906.63,1481.56h-19v-42.88h19v42.88h0ZM1093.37,1481.56h19v-42.88h-19v42.88h0ZM1060.85,1481.56h19v-42.88h-19v42.88h0ZM1939.13,1481.56h-19v-42.88h19v42.88h0ZM1028.34,1481.56h19v-42.88h-19v42.88h0ZM1971.65,1481.56h-19v-42.88h19v42.88h0ZM995.84,1438.68v42.88h19v-42.88h-19ZM2004.15,1438.68v42.88h-19v-42.88h19ZM963.32,1481.56h19v-42.88h-19v42.88h0ZM2036.66,1481.56h-19v-42.88h19v42.88h0ZM930.82,1481.56h19v-42.88h-19v42.88h0ZM2069.18,1481.56h-19.02v-42.88h19.02v42.88h0ZM898.31,1481.56h19v-42.88h-19v42.88h0ZM2101.68,1481.56h-19v-42.88h19v42.88h0ZM865.8,1438.68v42.88h19v-42.88h-19ZM2134.19,1438.68v42.88h-19v-42.88h19ZM852.29,1438.68v37.13c-10.44-11.61-20.16-24.68-28.06-37.13h28.06ZM2147.69,1438.68v37.13c10.44-11.61,20.15-24.68,28.06-37.13h-28.06Z"/>
      <path class="cls-2" d="M1427.45,765.67c.74.23,1.48.41,2.2.51,3.81.56,7.85.16,12.01-4.71,1.54-1.8,3.83-4.41,5.38-7.25,1.85-3.43,2.73-7.18,2.32-10.86-.31-2.8-1.43-5.27-2.98-7.45.43-4.12,1.13-7.53,1.44-12.44.31-4.68.08-8.58-.07-15.3-.3-13.73-.2-17.49,4.82-27.81,3.98-8.2,12.64-18.96,21.96-27.91,8.38-8.04,18.75-15.12,27.29-18.62,11.52-4.73,19.6-6.04,19.6-6.04,3.41-.52,6.38-2.65,7.98-5.74h0s62.92-121.13,73.59-145.14c10.62-23.95,25.69-58.07,35.69-81.31,6.7-15.57,10.22-26.31,11.45-32.23,1.12-5.38.5-8.9-.09-10.55-1.44-4.03-4.14-5.99-6.85-6.99-2.76-1.01-6.95-1.58-11.5,2.02-.9.71-3.72,3.85-7.54,9.09-11.54,15.84-37.83,54.81-55.44,82.89-17.86,28.45-71.32,115.71-80.71,132.83-8.89,16.2-19.17,32.05-28.22,41.88-15.42,16.73-30.42,36.34-38.39,41.01-4.25,2.48-8.03,2.99-12.43,3.54-6.35.78-13.65,1.43-23.6,4.31-15.84,4.59-37.84,14.26-49.55,39.93-13.94,30.59-5.25,43.66-2.42,51.19,2.63,7.01,15.99,22.82,33.85,26.92,16.47,3.78,25.89,2.02,41.72-4.18,6.27-2.46,12.78-8.2,18.5-11.58h0ZM1401.67,697.13c.33.07,2.01.56,2.5.74,10.75,4.03,13.8,16.92,8.02,29.15-6.97,14.73-23.47,24.23-37.26,20.38-11.97-3.35-15.59-16.86-9.54-29.65,6.81-14.4,22.7-23.79,36.28-20.62h0Z"/>
      <path class="cls-1" d="M1438.22,738.27c.34-5.54,1.29-9.3,1.69-15.3.29-4.47.06-8.19-.09-14.62-.34-15.55-.06-19.77,5.61-31.44,4.31-8.85,13.56-20.52,23.61-30.16,9.12-8.76,20.47-16.42,29.76-20.23,12.57-5.16,21.38-6.54,21.38-6.54.94-.15,1.75-.73,2.19-1.57,0,0,62.75-120.76,73.38-144.7,10.61-23.92,25.67-58.01,35.66-81.23,6.39-14.85,9.8-25.08,10.97-30.72.66-3.19.56-5.28.21-6.26-.45-1.27-1.29-1.92-2.14-2.23-.93-.34-2.32-.41-3.85.8-.73.58-2.92,3.25-6.04,7.54-11.49,15.75-37.63,54.51-55.15,82.43-17.79,28.38-71.1,115.36-80.47,132.43-9.24,16.83-19.95,33.24-29.35,43.45-16.05,17.41-31.91,37.61-40.22,42.47-5.28,3.1-9.96,3.88-15.45,4.55-6.02.75-12.94,1.34-22.35,4.06-14.2,4.11-34.06,12.6-44.55,35.61-12.29,26.96-4.71,38.47-2.22,45.12,2.18,5.78,13.44,18.6,28.21,21.98,14.63,3.35,22.99,1.68,37.06-3.84,6.95-2.72,14.17-9.67,20.26-12.58.93-.44,1.57.03,2.15.29.8.36,1.56.65,2.3.77,1.55.22,3.17-.03,4.85-2.02,1.26-1.47,3.18-3.56,4.43-5.88,1.06-1.97,1.65-4.09,1.42-6.19-.19-1.64-.98-3.03-1.94-4.26-.28-.36-.58-.71-.86-1.06-.15-.2-.38-.55-.45-.67h0ZM1404.78,689.74c16.61,4.64,22.96,22.94,14.57,40.67-8.65,18.27-29.45,29.4-46.56,24.61-16.61-4.64-22.95-22.92-14.56-40.66,8.63-18.27,29.44-29.41,46.55-24.62h0Z"/>
      <path class="cls-2" d="M1517.17,617.02h0c1.59,3.46,4.86,5.83,8.65,6.27h0s17,1.96,31.57,7.62c8.5,3.3,14.55,8.99,23.1,16.65,9.15,8.19,21.21,22.02,23.3,30.42,2.35,9.45.68,13.5-.88,27.67-2.12,19.21,5.05,40.29,17.01,53.38,17.46,19.1,41.31,17.77,55.17,15.79,3.1-.44,5.04-.78,6.53-.2,1.18.47,1.73,1.58,2.73,2.75,5.53,6.39,18.47,18.61,29.86,22.75,6.56,2.37,13.99,4.92,20.45,5.78,6.42.87,12.16.08,16.52-2.29,6.84-3.7,9.31-9.33,9.45-14.58.21-7.27-4.84-15.21-13.99-17.71-5.89-1.61-13.05-2.29-22.04-5.76-5.66-2.18-9.03-6.35-10.17-10.34-.83-2.89-.44-6.3-.07-10.2.55-5.7,1.4-12.14,1.51-19.28.15-8.55-.24-18.53-3.85-27.68-10.61-26.88-35.64-39.23-56.44-41.17-6.97-.65-12.11-1.08-16.19-1.78-4.47-.76-7.26-1.79-10.1-4.47-7.15-6.7-23.61-29.38-36.6-41.21-12.07-10.97-17.08-18.97-26.35-34.54-9.95-16.73-63.33-110.81-80.7-139.42-13.99-23.08-39.36-62.41-50.71-78.53-3.92-5.56-6.95-8.85-7.91-9.57-4.9-3.61-9.12-2.68-11.75-1.52-2.65,1.15-5.32,3.28-6.49,7.59-.42,1.56-.72,4.86.38,9.77,1.26,5.54,4.42,15.43,9.23,29.35,8.34,24.2,24.37,65.12,35.97,88.98,11.42,23.49,62.82,135.48,62.82,135.48h0ZM1653.01,692.89c11.3-3.58,22.7,4.86,26.14,17.83,3.6,13.53-2.28,27.93-14.09,31.68-11.3,3.58-22.7-4.86-26.14-17.82-3.6-13.53,2.28-27.93,14.09-31.69h0Z"/>
      <path class="cls-1" d="M1524.37,613.72c.43.94,1.33,1.58,2.36,1.71,0,0,18.05,2.09,33.51,8.11,9.34,3.63,16.12,9.72,25.52,18.13,10.25,9.18,23.37,24.99,25.71,34.42,2.57,10.38,1.01,14.85-.71,30.44-1.86,16.97,4.42,35.6,14.99,47.16,15.22,16.64,36.13,15.02,48.2,13.29,4.99-.71,8.13-.66,10.54.27,2.32.91,3.86,2.64,5.84,4.95,4.93,5.71,16.38,16.78,26.58,20.48,6.03,2.19,12.85,4.59,18.78,5.39,4.54.61,8.62.27,11.7-1.41,3.74-2.02,5.24-4.98,5.32-7.84.12-4.12-2.98-8.43-8.17-9.84-6.09-1.66-13.48-2.43-22.8-6.02-8.4-3.23-13.23-9.62-14.93-15.55-1.07-3.72-.81-8.11-.34-13.14.52-5.52,1.36-11.74,1.48-18.65.13-7.61-.09-16.5-3.3-24.65-9.36-23.69-31.48-34.48-49.82-36.19-18.04-1.69-24.26-2.06-30.98-8.37-7.11-6.69-23.53-29.32-36.49-41.11-12.71-11.57-18.07-19.96-27.82-36.35-9.94-16.72-63.31-110.76-80.66-139.37-13.92-22.94-39.14-62.04-50.43-78.07-3.12-4.42-5.36-7.19-6.12-7.75-1.64-1.2-3.03-1.02-3.91-.64-.83.36-1.63,1.05-2,2.4-.26.95-.21,2.96.47,5.96,1.22,5.38,4.32,14.99,8.98,28.51,8.27,23.97,24.12,64.48,35.61,88.1,11.43,23.51,62.9,135.63,62.9,135.63h0ZM1650.61,685.35c15.38-4.89,31.51,5.7,36.19,23.33,4.72,17.79-3.83,36.34-19.35,41.26-15.38,4.88-31.51-5.7-36.19-23.34-4.72-17.78,3.83-36.33,19.35-41.25h0Z"/>
      <path class="cls-2" d="M1521.3,550.72c-6.98,2.22-10.86,9.68-8.63,16.67,2.21,6.98,9.68,10.86,16.66,8.63,6.98-2.21,10.85-9.68,8.63-16.66-2.22-6.97-9.68-10.85-16.66-8.64h0ZM1529.66,557.47c1.21.88,2.15,2.15,2.64,3.69,1.22,3.85-.91,7.98-4.77,9.21-.24.08-.5.14-.76.2l2.89-13.09h0ZM1523.85,556.19l-2.87,13.09c-1.21-.88-2.16-2.15-2.65-3.69-1.22-3.85.92-7.98,4.77-9.21.26-.08.5-.14.76-.2h0Z"/>
      <g>
        <path class="cls-4" d="M381.55,1226.92c-.52-3.43,2.17-90.31-.46-91.38-3.67-14.21-11.01-28.06-21-35.42,9.99-9.55,18.94-22.35,22.63-38.74,2.66-25.98-3.08-105.22,5.91-130.03,19.05-63.09,76.27-89.82,124.92-79.6,44.96,7.74,88.64,51.46,84.11,110.12-.01,2.58-.06,11.63-.07,14.86.4,26.4-15.04,51.97-43.53,53.49-16.89,1.25-42.71-4.04-46.86-24.46,8.45-1.91,15.87-10.35,19.07-20.46,1.07-4.7,1.62-10.02,1.11-14.62.02-5.29.59-17.23-.44-21.81-1.54-11.17-8.91-19.48-16.29-24.53-17.92-11.31-43.84-5.87-56.04,17.13-2.12,4.17-3.72,9.69-4.26,15.16,0,2.7-2.34,98.82-.24,101.36,3.65,13.96,12.05,24.02,21.51,30.5-.18.24-.35.48-.53.73-10.56,9.81-18.49,24.92-22.2,41.01-.54,6.17-1.78,90.07-.74,94,1.56,5.89,4.17,12.29,7.83,15.79,18.31,20.85,56.12,9.85,67.3-22.73,1.6-6.18,1.63-12.8,1.65-18.76.01-2.65.6-19.93.08-21.85-.47-13.16-9.38-23.36-19.38-24.17,4.8-19.93,26.42-29.58,47.51-33.07,22.14-2.91,40.51,14.03,41.98,37.06.49,7.05-.09,17.45-.12,24.56,3.44,50.51-20.47,91.78-57.86,118.61-59.54,44.61-154.59,26.56-155.6-72.75Z"/>
        <path class="cls-4" d="M675.28,1242.8c-16.16-30.59-14.39-65.11-13.45-136.59.58-8.9.91-65.81,1.12-102.49-4.14-14.9-23.62-27.22-28.36-30.19,3.17-.16,14.27-.72,28.54-1.42,0,0,38.07-1.85,60.28-2.85,0,.21,0,.41,0,.62,12.16-.56,23.81-1.69,33.33-2.11-12.74,7.31-27.09,19.12-33.53,34.38-.21,33.52-.52,83.18-.64,102.42-.41,65.12-7.97,92.78,13.04,108.86,26.78,20.74,73.49-8.98,73.49-8.81.83-71.07,1.67-142.12,2.5-213.15-6.26-12.39-22.6-22.64-26.81-24.91,2.65-.11,13.23-.56,26.99-1.11,4.76-.19,9-.36,13.23-.53,26.99-.48,60.88-1.74,81.54-3.05-12.76,6.94-26.59,17.56-33.58,32.76-.26,37.53-.24,187.5-.26,191.06-.13,19.08,16.17,35.27,27.26,38.88-12.77,9.55-25,16.74-45.7,25.62-18.58,8.03-50.9,18.52-77.88,25.11-56.08,14.74-83.38,2.35-101.1-32.51Z"/>
        <path class="cls-4" d="M976.23,1150.7c.17-25.58,2.16-84.33-.88-105.67-3.09-13.21-12.56-22.66-22.58-29.22,10.65-7.49,17.62-19.99,21.94-32.35.53-.02,1.16-14.57,1.82-33.77-.38-22.65-.18-52.3-.15-56.37.04-5.81-2.04-12.18-2.56-13.33-5.73-13.87-18.38-23.08-31.04-30.01,39.36-.3,78.72-.56,118.08-.8-.35.19-.71.39-1.06.58-9.04,5.77-15.98,14.42-17.11,25.91-.15,24.08-.4,62.5-.12,102.04,3.72-1.83,7.45-4.24,11.7-6.08,1.59-.62,2.65-.65,4.25-1.27,18.57-3.37,30.65,15.09,44.92,23.15,7.41,3.18,16.43.64,23.35-4.07-5.89,9.75-20.84,27.76-33.08,35.03-31.94,19.39-39.82,7.85-51.43-.89.1,67.63-.28,127.81-.23,119.22-.2,31.58,16.63,54.93,42.16,49.77,15.42-3.31,27.18-15.34,27.27-30.62-.41-21.47-18.97-25-18.97-25,5.93-14.54,21.91-24.41,38.89-22.94,25.47,3.33,42.37,22.8,44.37,46.77,3.5,44.02-33.86,70.2-69.53,79.07-66.54,16.28-130.48-19.61-130-89.13Z"/>
        <path class="cls-4" d="M1216.25,1025.68c.11-23.97.22-47.95.33-71.92,1.06-.02,2.12-.04,3.18-.05,59.75-1.02,119.52-1.74,179.29-2.15-.04,18.28-.07,36.57-.11,54.85-17.39,23.57-34.81,47.24-52.23,71.05-.53.56-.53,1.11-1.07,1.67-3.75,11.63-1.13,24.79,3.62,36.79-12.23-1.94-24.47,2.76-34.59,8.54-.53.57-2.13,1.71-4.27,3.42-11.75,16.32-23.52,32.73-35.29,49.21,7.98-1.57,93.14-.75,98.48-5.64,8.53-3.48,16.53-9.68,22.93-16.92-.03,12.62-.65,55.41-.67,69.68-60.21,1.28-120.41,3.49-180.55,6.63.27-19.34.53-38.67.8-58.01,18.74-26.85,37.46-53.44,56.16-79.82,3.77-11.74,1.16-24.39-3.58-35.91,12.21,1.91,23.91-2.8,34.56-8.54,0,0,.53-.56,1.07-1.13,10.67-14.76,21.34-29.47,32-44.12-7.44.58-91.3-.67-96.62,3.98-9.04,3.54-17.03,10.41-23.44,18.38Z"/>
        <path class="cls-4" d="M1432.08,1223.56c11.2-5.11,30.93-19,35.2-34.35-.53-1.09,1.73-156.48.67-157.57-3.18-9.28-12.2-20.19-22.29-21.22,4.25-1.67,19.14-19.26,21.8-28.02,3.72-1.65,1.67-98.48,2.74-101.22-4.76-15.86-21.17-26.24-34.93-33.34,36.02,1.04,113.88-.05,123.41-.04-5.82,3.28-29.66,18.03-29.66,32.25,0,15.86.01,81.47.01,81.47,0,0,23.88-8.18,32.36-10.34,52.51-13,84.35,3.64,101.95,36.78,19.73,37.54,25.72,87.76,21.57,126.71-6.23,55.47-26.36,92.15-78.57,105.56-5.33,1.02-13.32,2.55-19.18,2.49-50.63.45-114.06.15-155.09.84ZM1618.5,1149.2c15.38-33.73,15.19-122.1-15.64-146.4-27.63-22.09-74.33,9.57-74.34,9.58-.17,53.77-.34,107.54-.51,161.3,28.75,1.06,76.17,7.05,90.49-24.49Z"/>
        <path class="cls-4" d="M1876.9,1233.75c-30.32-1.85-60.66-3.46-91.01-4.84.35-.17.71-.34,1.06-.51,7.97-4.63,13.25-12.72,15.34-21.51.53-.53.52-2.2,1.05-3.29.53-1.09.23-70.04.22-71.15-2.17-10.65-9.67-22.58-18.73-28.97,5.3-3.16,10.6-7.43,13.76-12.33-19.11-36.91-38.19-73.52-57.25-109.9-5.34-10.02-11.21-20.04-19.72-26.76-1.59-.57-3.19-2.24-4.78-2.81,21.75.22,73.2.37,94.41,1.3-3.17,2.17-6.87,6.01-8.97,9.86-2.11,3.3-3.15,7.73-2.6,11.63,0,.56.54,2.23.54,2.79,10.88,21.69,21.77,43.48,32.67,65.38.52-4.36,38.92-71.08,33.06-74.66-2.15-5.65-6.42-10.78-11.21-14.23,21.21.38,73.17.93,94.9,2.06q-.53-.01-.53-.01-.53.56-1.06.54c1.59.04,3.18.08,4.77.12-1.59-.04-3.18-.08-4.77-.12-8.45,5.47-14.23,13.83-19.48,22.18-1.05,1.67-2.62,4.46-3.15,6.14-.5.82-59.87,109.11-60.42,109.97,3.75,5.75,9.08,9.9,13.88,14.04-9,5.23-15.32,15.05-18.46,25.55,0,1.12-.7,71.64-.16,72.79.01,2.8,1.1,6.22,1.64,8.49,2.17,7.96,8.58,13.93,14.99,18.26Z"/>
        <path class="cls-4" d="M2032.56,913.01c-10.05,2.69-19,9.99-26.37,17.29.18-26.6.37-53.2.55-79.81,1.06,0,2.12.01,3.18.02,66.01.44,132.02.96,198.02,1.58-.03,20.86-.07,41.72-.1,62.58-19.98,45.61-39.95,90.5-59.94,134.76-.53.56-.51,2.34-.5,3.52.08,11.25,3.86,22.14,8.69,32.55-9-.6-17.98,2.96-25.36,8.37-2.11,1.04-3.69,2.7-5.27,3.77-14.26,31.44-28.53,62.57-42.81,93.44,8.49-.65,93.84,10.71,100.14,6.13,8.98-2.7,17.93-8.41,24.75-16.16.1,14.44-.06,67.9.04,83.54-65.98-7.84-132.1-14.54-198.32-20.1.05-19.9.1-39.79.15-59.69,19.72-41.63,39.41-83.68,59.09-126.25,0-1.16-.02-2.91-.03-4.07-.6-9.92-4.37-19.41-8.66-27.72,9.54-.15,19.57-4.33,26.42-9.87.53-.56,1.58-1.1,2.11-1.66,15.66-33.95,31.31-68.25,46.96-102.93-8.99.91-97.46-3.85-102.73.72Z"/>
        <path class="cls-4" d="M2379.78,1286.39c-30.56-4.63-87.06-12.45-117.73-16.3,11.58-5.84,24.21-12.79,30.46-26.17.52-.55,1.03-2.95,1.56-4.12.16-29.94.32-59.89.47-89.85,0-1.23-1.08-3.18-1.62-5.08-4.3-10.88-10.71-21.29-19.2-27.53,7.89-5.44,15.77-12.76,19.41-22.32.52-.57,1.57-2.34,1.56-3.57.33-30.98.66-61.98.99-92.99-1.14-13.01-7.02-23.16-16.59-30.32-.18-.21-.36-.42-.53-.64,39.15,1.7,78.29,3.52,117.4,5.48-12.12,7.03-24.75,15.85-31,31.21-.52,1.23-1.56,3.68-1.56,4.31,1.08,3.87-3.19,86.56,0,89.96,3.76,11.02,12.26,21.26,20.75,29.07-10.51,6.56-17.83,19.05-21.97,31.8.54,2.58-.55,86.05-.53,88.55.54,2.59.56,5.73,1.1,7.69.18,1.28.37,2.56.55,3.85,2.17,10.98,8.55,20.7,16.49,26.95ZM2296.2,915.87c-4.22,1.74-14.75,9.41-14.75,9.4,0-.04,4-34.73,29.21-64.73,1.05-1.23,2.1-2.45,3.16-3.06,15.8-12.25,34.4.37,50.81,1.89,7.94.11,15.3-7.37,19.49-15.58-.98,13.31-7.72,38.55-16.1,51.56-30.91,50.02-44.9,9.97-71.82,20.52Z"/>
        <path class="cls-4" d="M2467.52,1371.03c-.13-27.26,22.38-44.85,40.76-41.6,16.8,3.01,32.57,13.24,38.39,31.79,0,0-19.39-1.09-20.37,19.28-1,14.39,7.45,31.39,22.65,37.39,28.29,11.62,54.88-8.08,54.81-45.82,0-.68-.05-22.55-.11-51.94-58.54,17.56-144.35-34.71-144.82-121.94-.03-7.14.41-25.25-1.71-26.8-4.28-14.13-11.2-28.5-21.79-37.33,10.51-6.61,19.42-16.7,22.51-31.33,3.05-23.74-2.82-39.13,5.51-61.21,19.25-56.2,67.26-75.36,120.06-62.18,42.25,9.76,74.42,49.68,74.46,109.92q0,.7,0,1.4c0,.23,0,.47,0,.7,0,7.68-.41,140.82,1.69,142.57,4.2,16.03,11.02,31.17,21.49,41.48-9.94,7.38-19.35,17.56-22.48,32.31-3.12,25.91-1.54,38.05-1.51,68.74.02,83.75-58.71,118.29-123.65,89.34-35.62-15.72-65.68-49.33-65.89-94.75ZM2513.61,1079.17c0,2.66-1.31,69.3-1.19,101.68.13,33.03,8.64,58.71,20.23,68.51,28.97,24.51,70.88,17.02,70.78-31.73-.07-33.48.96-44.96.96-44.96-.02-10.25-.04-17.77-.04-21.88,0-2.05,0-2.73,0-2.73-.02-8.2-.06-30.76-.1-49.91-.03-15,.98-41.04-21.19-57.12-31.15-22.03-70.11,1.95-69.43,38.14Z"/>
      </g>
    </g>
  </g>
</svg>