<?xml version="1.0" encoding="UTF-8"?>
<svg id="Layer_1" xmlns="http://www.w3.org/2000/svg" viewBox="0 0 1671.66 1099.09">
  <defs>
    <style>
      .cls-1 {
        fill: #071b22;
      }

      .cls-1, .cls-2, .cls-3 {
        fill-rule: evenodd;
      }

      .cls-2 {
        fill: #e8ddc3;
      }

      .cls-4 {
        fill: #123341;
      }

      .cls-5 {
        fill: #faae1a;
        stroke: #000;
        stroke-miterlimit: 10;
        stroke-width: 11px;
      }

      .cls-3 {
        fill: #7c5523;
      }
    </style>
  </defs>
  <path class="cls-4" d="M831.79,1099.09c-236.41,0-454.02-108.48-597.02-297.62-5.69-7.58-11.81-14.06-19.95-21.02,38.03-13.66,72.61-28.12,103.27-49.89,120.29,162.59,311.43,259.29,513.7,259.29s393.5-96.7,513.77-259.29c30.65,21.75,65.23,36.22,103.27,49.9-8.02,6.85-14.2,13.37-19.95,21.05-142.98,189.11-360.62,297.59-597.08,297.59Z"/>
  <path class="cls-3" d="M835.98,852.87h-.15c-1.62,0-2.93,1.3-2.93,2.92,0,0-4.32,55.7-6.99,104.21-.53,9.74-.92,19.17-1.2,27.79-.1,3.27-.19,6.42-.28,9.43-6.4-5.26-14.43-10.51-24.36-14.95-14.84-6.64-34.14-11.51-58.96-11.58-31.37-.04-63.48.18-90.68-4.72-17.41-3.14-32.78-8.22-43.9-17.79-.25-.27-.51-.52-.79-.77,0,0-3.72-3.46-9.27-10.93-4.98-8.14-6.32-16.47-5.05-23.8,1.37-7.91,5.21-14.79,11.09-18.12,2.45-1.38,5.04-2.54,7.92-2.46,4.51.06,8.16,1.49,10.16,4.16,2.19,2.9,3.59,6.54,1.08,8.88-.95.88-1.72,1.58-2.63,1.56-1.3-.02-2.84-.68-3.8-1.75-1.3-1.44-.68-3.19-2.31-3.75-1.66-.56-3.46.32-4.02,1.97-1.45,2.95,1.1,8.7,6.19,11.44,3.45,1.86,7.89,1.8,12.84-1.12,8.3-4.95,9.41-15.53,4.92-24.73-3.34-6.85-10.59-12.28-20.71-14.16-12.13-1.99-23.95,3.41-32.52,13.08-2.45,2.77-4.55,5.94-6.28,9.43-3.34-5.18-7.08-9.51-11.22-12.89-7.6-6.21-15.94-9.98-24.27-11.06-5.5-.7-10.82-.64-15.85.59-12.84,3.12-23.32,10.86-26.7,21.85-.76,1.57-.1,3.47,1.48,4.24,1.57.76,3.47.1,4.23-1.48,6.18-9.15,19.79-11.41,32.59-6.82,3.01,1.08,5.8,2.81,8.66,4.78,5.71,3.95,10.74,9.97,14.33,18.53,5.92,13.11,11.91,23.38,17.13,31.06,3.74,5.51,7.11,9.76,9.78,12.85.27.33.55.64.83.97.54.61,1.1,1.22,1.65,1.8,2.39,2.58,3.81,3.78,3.81,3.78.25.22.49.43.75.62,14.08,12.49,33.25,20.04,55.46,24.18,28.49,5.3,62.18,5.08,95.07,5.13,20.65-.02,36.74,3.82,49.11,9.28,25.38,11.2,34.25,28.96,34.65,29.77.06.13,5.52,10.7,10.99,10.71,5.46,0,10.93-10.55,10.99-10.71.45-.91,9.35-18.6,34.64-29.76,12.37-5.46,28.46-9.3,49.11-9.28,32.9-.05,66.58.18,95.07-5.13,22.21-4.14,41.38-11.68,55.47-24.18.25-.19.51-.4.75-.62,0,0,1.41-1.21,3.8-3.78.56-.59,1.11-1.19,1.65-1.8.28-.33.56-.64.83-.97,2.67-3.09,6.04-7.34,9.78-12.85,5.21-7.68,11.21-17.95,17.14-31.06,3.58-8.56,8.62-14.58,14.32-18.53,2.86-1.97,5.66-3.7,8.66-4.78,12.8-4.59,26.41-2.33,32.59,6.82.76,1.57,2.66,2.23,4.24,1.48,1.57-.76,2.23-2.66,1.47-4.24-3.39-10.98-13.86-18.73-26.7-21.85-5.02-1.22-10.35-1.29-15.84-.59-8.34,1.07-16.67,4.84-24.27,11.06-4.14,3.39-7.88,7.71-11.23,12.89-1.72-3.48-3.82-6.66-6.27-9.43-8.58-9.67-20.4-15.08-32.53-13.08-10.12,1.88-17.37,7.31-20.71,14.16-4.49,9.2-3.38,19.78,4.93,24.73,4.94,2.92,9.39,2.98,12.84,1.12,5.09-2.74,7.63-8.49,6.19-11.44-.56-1.65-2.37-2.54-4.02-1.97-1.6.55-2.48,2.24-2.03,3.85l.05.15c-.02-.06-.12-.16-.18-.22.03-.03.02-.06-.02-.07-.06-.02-.03.02.02.07-.07.09-.37.23-.47.37-.68.87-2.06,1.3-3.48,1.36-.91.05-1.68-.68-2.63-1.56-2.5-2.34-1.1-5.98,1.08-8.88,2-2.67,5.66-4.11,10.16-4.16,2.88-.07,5.47,1.08,7.92,2.46,5.87,3.33,9.71,10.21,11.09,18.12,1.27,7.34-.07,15.67-5.05,23.8-5.55,7.46-9.27,10.93-9.27,10.93-.28.25-.54.5-.79.77-11.12,9.58-26.47,14.66-43.89,17.79-27.2,4.9-59.31,4.68-90.68,4.72-24.82.07-44.11,4.94-58.95,11.58-9.94,4.44-17.96,9.69-24.37,14.95-.08-3-.17-6.16-.28-9.43-.28-8.62-.66-18.05-1.2-27.79-2.67-48.5-6.99-104.21-6.99-104.21,0-1.57-1.23-2.85-2.77-2.92h0ZM1125.4,867.5s15.18-7.95,33.79-12.33c6.23-1.46,12.74-2.18,19.3-2.15,1.95,0,3.89.12,5.83.25,1.85.14,3.72.17,5.56.54,4.69.48,8.58,1.42,11.48,3.62,1.56,1.18,3.12,2.03,4.23,3.4,3.16,3.94,5.3,7.88,4.08,11.6-.77,1.22-.41,2.83.8,3.6,1.22.77,2.83.41,3.6-.8,5.75-5.51,6.15-15.4,1.85-25.39-2.04-4.76-5.88-8.73-10.76-12.47-2.75-2.11-6.12-3.5-9.79-4.94-4.82-1.37-9.74-2.23-14.69-2.05-6.99.26-13.89,2.02-20.32,4.71-6.3,2.64-12.04,5.9-17.15,9.53-13.01,9.24-21.14,18.85-21.14,18.85-1.1.92-1.26,2.56-.35,3.67.91,1.11,2.56,1.26,3.67.35h0ZM549.58,863.48s-8.13-9.62-21.14-18.85c-5.11-3.62-10.85-6.89-17.15-9.53-6.43-2.69-13.33-4.44-20.32-4.71-4.94-.18-9.87.68-14.68,2.05-3.67,1.44-7.05,2.82-9.8,4.94-4.88,3.74-8.71,7.71-10.76,12.47-4.29,9.99-3.89,19.88,1.85,25.39.77,1.22,2.38,1.57,3.6.8,1.22-.77,1.57-2.38.8-3.6-1.22-3.72.92-7.65,4.09-11.6,1.1-1.37,2.66-2.23,4.22-3.4,2.91-2.19,6.8-3.14,11.48-3.62,1.84-.37,3.71-.4,5.56-.54,1.95-.13,3.88-.25,5.83-.25,6.56-.03,13.07.68,19.3,2.15,18.61,4.38,33.79,12.33,33.79,12.33,1.11.91,2.76.76,3.67-.35.91-1.11.76-2.75-.35-3.67h0Z"/>
  <path class="cls-3" d="M835.83,633.51c1.34-.03,2.68-.02,4.01,0,268.14.34,520.26,35.13,739.77,95.98,13.55-2.27,25.94-1.73,36.85.98,33.01,8.2,53.84,35.75,55.18,70.12.41,25.03-8.77,44.55-22.71,57.22-16.56,15.07-39.21,20.84-58.51,15.74-18.26-4.99-27.9-17.26-29.72-29.6-2.2-14.89,6.06-29.96,24.01-30.73,1.92-.21,3.63,1.18,3.84,3.1.21,1.92-1.18,3.63-3.1,3.84-11.45,1.96-15.94,12-13.35,21.39,2.15,7.78,9.5,14.62,21.61,16.45,14.04,2.26,29.41-3.71,40.33-15.32,9.03-9.62,14.58-23.53,13.27-40.99-.76-14.71-6.72-27.51-16.71-36.23.57,1.61,1.04,3.26,1.4,4.92,1.04,4.89,1.5,9.74.93,14.54-1.38,11.6-6.35,22.18-15.16,28.21-1.58,1.46-4.04,1.37-5.5-.21-1.45-1.57-1.36-4.04.21-5.49,3.93-4.89,5.17-11.36,5-18.09-.1-3.62-1.15-7.12-2.41-10.68-1.65-4.67-4.7-8.77-8.61-12.44-3.7-3.47-8.54-6.09-14.59-7.63-6.75-1.71-14.87-1.96-24.51-.27-7.69,2.6-15.78,6.26-24.18,11.08-17.71,9.89-34.62,15.71-50.27,17.67-8.19,1.02-16.01,1.16-23.34.29-14.35-1.72-26.77-6.26-36.64-12.8-12.23-8.1-20.6-18.53-24.05-29.62-.77-1.76.03-3.82,1.8-4.59,1.76-.78,3.82.03,4.59,1.8,7.04,12.38,22.7,21.21,42.86,23.77,9.12,1.16,19.11.66,29.95-1.35,13.28-2.46,27.75-7.4,42.74-16.44,2.84-1.67,5.65-3.22,8.44-4.66-51.29-13.38-104.28-25.35-158.78-35.79,1.49,2.03,2.77,4.12,3.85,6.25,4.47,8.74,6.12,17.96,4.54,26.09-.55,2.79-1.2,5.48-2.46,7.88-5.06,9.62-13.89,16.51-26.2,15.06-1.92.12-3.58-1.34-3.7-3.26-.12-1.92,1.34-3.58,3.26-3.7,7.28-1.83,10.28-7.68,11.42-14.22,1.41-8-2.19-17.45-11.17-24.44-4.72-3.68-11.01-6.26-18.84-7.96-9.27-2.01-20.62-2.61-34.39-.52-16.65,2.13-33.6,4.58-49.96,5.23-11.95.48-23.52.14-34.37-1.39-21.42-3-39.79-10.02-52.56-24.02-1.42-1.3-1.52-3.5-.21-4.93,1.3-1.42,3.51-1.52,4.93-.21,13.14,10.05,30.02,12.65,48.9,12.41,10.08-.14,20.62-1.33,31.53-2.75,7.26-.95,14.65-2.03,22.07-3.21-111.43-16.86-228.21-27.5-348.74-31.12,7.78,4.2,15.63,9.09,23.32,14.8,28.16,20.87,54.52,52.52,69.45,100.6,9.9,32.15,7.39,69-5.96,99.39-14.46,32.9-41.33,58.16-77.76,63.18-20.85,2.72-38.04-1.43-51.2-9.36-17.14-10.34-27.62-26.8-30.89-42.4-2.68-13.56-.43-26.51,5.38-36.8,6.67-11.83,17.5-20.31,29.64-22.34,16.94-2.69,27.82,5.17,31.58,15.13,4.2,11.14.09,25.2-15.29,28.77-1.68.49-3.44-.46-3.93-2.14-.49-1.68.46-3.44,2.14-3.94,9.26-3.35,11.4-12.06,8.01-18.67-2.87-5.6-9.95-8.9-19.73-6.23-7.9,2.07-14.31,8.54-18.07,16.75-3.35,7.29-4.22,16.15-1.71,25.19,2.88,10.82,11.01,21.75,23.33,28.52,9.83,5.4,22.43,7.93,37.57,5.53,28.33-4.28,48.44-24.8,59.46-50.52,10.92-25.46,13.01-56.19,4.59-82.97-13.17-42.21-36.21-70.05-60.94-88.37-5.61-4.16-11.31-7.84-16.99-11.07,2.57,4.12,4.87,8.4,6.86,12.81,3.16,7.02,5.66,14.31,7.1,21.76,1.48,7.62,2.1,15.32,1.54,22.91-.83,11.52-3.71,22.69-9.44,32.81-5.25,9.25-12.45,17.54-22.25,24.37-1.32,1.14-3.32,1.02-4.47-.3-1.14-1.32-1.01-3.32.3-4.47,14.35-15.32,18.7-33.83,17.13-52.34-.52-6.04-1.8-12.01-3.54-17.95-1.71-5.82-3.99-11.52-6.78-17.02-5.49-10.83-13.11-20.71-22.33-28.66-8.5-7.35-18.41-13.04-29.29-16.05.41.58.82,1.14,1.24,1.69,5.53,7.26,11.86,12.24,17.23,18.28,6.74,7.65,11.76,17.6,13.55,28.44,1.68,10.15.76,20.99-3.77,31.2-3.52,7.64-7.53,14.18-11.71,19.77-8.19,10.94-16.67,17.85-20.04,23.26-3.69,5.9-4.79,11.37-3.53,15.9,1.52,5.41,5.66,9.47,10.63,10.16,4.95.7,8.77-.06,11.48-1.93,3.62-2.52,5.48-6.38,5.18-9.25-.29-2.79-1.63-5.29-3.66-6.83-2.1-1.61-4.76-2.45-7.37-1.53-1.57.65-3.39-.1-4.03-1.69-.65-1.57.1-3.38,1.69-4.03,4.62-2.19,9.7-1.37,13.88,1.18,3.93,2.41,6.87,6.6,7.92,11.57,1.14,5.33-1.04,13.2-7.35,18.65-4.2,3.62-10.35,6.01-18.78,5.71-9.04-.34-17.5-6.1-21.94-15.01-4.45,8.91-12.91,14.66-21.95,15.01-8.42.3-14.58-2.08-18.78-5.71-6.3-5.44-8.48-13.31-7.35-18.65,1.05-4.97,3.98-9.16,7.92-11.57,4.18-2.56,9.26-3.37,13.88-1.18,1.57.65,2.33,2.46,1.68,4.03-.64,1.58-2.45,2.34-4.03,1.69-2.61-.91-5.27-.08-7.37,1.53-2.03,1.55-3.37,4.05-3.66,6.83-.3,2.87,1.57,6.73,5.19,9.25,2.7,1.88,6.53,2.63,11.48,1.93,4.96-.69,9.1-4.74,10.62-10.16,1.27-4.54.16-10.01-3.53-15.9-3.35-5.41-11.84-12.32-20.04-23.26-4.18-5.59-8.19-12.13-11.71-19.77-4.51-10.21-5.44-21.05-3.77-31.2,1.79-10.83,6.81-20.78,13.56-28.44,5.37-6.04,11.69-11.02,17.22-18.28.42-.55.83-1.11,1.24-1.69-10.87,3-20.78,8.69-29.29,16.05-9.22,7.95-16.83,17.83-22.33,28.66-2.78,5.5-5.07,11.2-6.78,17.02-1.74,5.94-3.02,11.91-3.54,17.95-1.57,18.51,2.78,37.02,17.13,52.34,1.32,1.15,1.45,3.16.3,4.47-1.15,1.32-3.16,1.45-4.47.3-9.81-6.83-17-15.12-22.25-24.37-5.73-10.12-8.6-21.29-9.44-32.81-.55-7.59.07-15.28,1.54-22.91,1.44-7.45,3.93-14.74,7.1-21.76,1.99-4.41,4.28-8.69,6.86-12.81-5.67,3.23-11.37,6.91-16.99,11.07-24.73,18.32-47.77,46.16-60.93,88.37-8.42,26.78-6.33,57.5,4.59,82.97,11.02,25.71,31.15,46.24,59.46,50.52,15.15,2.4,27.75-.14,37.57-5.53,12.32-6.77,20.45-17.71,23.33-28.52,2.51-9.04,1.64-17.91-1.71-25.19-3.76-8.2-10.17-14.67-18.07-16.75-9.78-2.67-16.86.64-19.73,6.23-3.39,6.6-1.25,15.32,8.01,18.67,1.68.5,2.64,2.27,2.14,3.94-.49,1.68-2.26,2.63-3.93,2.14-15.38-3.57-19.49-17.63-15.29-28.77,3.76-9.97,14.64-17.82,31.59-15.13,12.14,2.03,22.96,10.51,29.64,22.34,5.8,10.29,8.06,23.24,5.37,36.8-3.27,15.6-13.75,32.06-30.88,42.4-13.16,7.93-30.36,12.08-51.2,9.36-36.44-5.02-63.3-30.29-77.76-63.18-13.36-30.39-15.87-67.25-5.97-99.39,14.93-48.08,41.29-79.73,69.45-100.6,7.7-5.71,15.54-10.6,23.32-14.8-120.53,3.62-237.32,14.26-348.74,31.12,7.42,1.18,14.81,2.26,22.07,3.21,10.92,1.42,21.45,2.62,31.53,2.75,18.88.25,35.76-2.35,48.9-12.41,1.42-1.3,3.63-1.21,4.93.21,1.3,1.42,1.21,3.63-.21,4.93-12.78,14-31.14,21.02-52.57,24.02-10.85,1.53-22.4,1.87-34.36,1.39-16.36-.65-33.32-3.1-49.97-5.23-13.77-2.09-25.11-1.49-34.39.52-7.83,1.7-14.12,4.28-18.84,7.96-8.97,6.99-12.57,16.44-11.17,24.44,1.15,6.54,4.14,12.39,11.42,14.22,1.92.12,3.39,1.78,3.26,3.7-.12,1.92-1.78,3.38-3.7,3.26-12.3,1.45-21.13-5.44-26.2-15.06-1.26-2.4-1.92-5.09-2.46-7.88-1.58-8.13.06-17.35,4.54-26.09,1.08-2.12,2.36-4.21,3.85-6.25-54.49,10.44-107.48,22.4-158.77,35.79,2.78,1.44,5.6,2.99,8.43,4.66,15.01,9.04,29.47,13.97,42.75,16.44,10.84,2.01,20.82,2.51,29.95,1.35,20.16-2.56,35.81-11.39,42.85-23.77.78-1.76,2.84-2.58,4.6-1.8,1.76.77,2.57,2.83,1.8,4.59-3.46,11.09-11.83,21.52-24.05,29.62-9.88,6.54-22.29,11.09-36.64,12.8-7.34.87-15.16.74-23.35-.29-15.64-1.96-32.56-7.77-50.27-17.67-8.41-4.82-16.48-8.48-24.18-11.08-9.63-1.69-17.76-1.44-24.5.27-6.06,1.54-10.9,4.16-14.6,7.63-3.9,3.66-6.96,7.77-8.61,12.44-1.25,3.56-2.31,7.06-2.4,10.68-.17,6.73,1.06,13.2,4.99,18.09,1.57,1.45,1.68,3.92.21,5.49-1.45,1.58-3.92,1.68-5.49.21-8.81-6.03-13.79-16.61-15.17-28.21-.56-4.8-.11-9.66.94-14.54.35-1.66.82-3.31,1.39-4.92-10,8.71-15.95,21.51-16.71,36.23-1.3,17.47,4.24,31.38,13.27,40.99,10.91,11.61,26.3,17.58,40.33,15.32,12.11-1.84,19.47-8.67,21.61-16.45,2.58-9.39-1.9-19.42-13.35-21.39-1.92-.21-3.3-1.92-3.1-3.84.21-1.92,1.92-3.31,3.84-3.1,17.96.76,26.21,15.83,24.02,30.73-1.83,12.33-11.47,24.61-29.72,29.6-19.3,5.09-41.96-.68-58.52-15.74C8.78,845.15-.4,825.63.01,800.6c1.34-34.37,22.16-61.92,55.17-70.12,10.91-2.71,23.31-3.24,36.85-.98,219.51-60.85,471.64-95.63,739.78-95.98,1.33-.03,2.66-.04,4.01,0h0ZM948.65,731.64c7.65,8.02,13.26,16.17,17.41,24.57,2.15,4.35,3.54,8.64,4.61,12.93,1.7,6.82,1.84,13.42.91,19.55-.74,4.81-2.32,9.36-4.78,13.29-3.16,5.04-7.38,9.42-12.89,12.33-4.4,2.31-9.09,4.23-14.77,4.74-6.4.57-12.95.17-20.85-1.87-1.45,0-2.61-1.17-2.61-2.61s1.17-2.61,2.61-2.61c10.16-2.42,16.66-6.87,22.19-11.75,2.61-2.3,4.12-5.09,5.76-7.83,1.61-2.68,2.84-5.55,3.7-8.72,1.88-6.85,2.76-14.5,1.46-23.2-1.24-8.28-3.16-16.86-7.08-25.94-.79-1.2-.47-2.82.73-3.62,1.2-.8,2.82-.46,3.62.73h0ZM723.01,731.64c-7.65,8.02-13.26,16.17-17.41,24.57-2.15,4.35-3.54,8.64-4.62,12.93-1.7,6.82-1.84,13.42-.9,19.55.73,4.81,2.31,9.36,4.78,13.29,3.16,5.04,7.37,9.42,12.89,12.33,4.39,2.31,9.08,4.23,14.77,4.74,6.4.57,12.95.17,20.86-1.87,1.44,0,2.61-1.17,2.61-2.61s-1.17-2.61-2.61-2.61c-10.16-2.42-16.67-6.87-22.2-11.75-2.61-2.3-4.11-5.09-5.76-7.83-1.61-2.68-2.84-5.55-3.7-8.72-1.88-6.85-2.76-14.5-1.45-23.2,1.24-8.28,3.16-16.86,7.08-25.94.79-1.2.46-2.82-.74-3.62-1.2-.8-2.81-.46-3.61.73h0ZM628.83,723.08h-274.79c-4.08,0-12.37-.92-14.58,2.5-2.2,3.43,1.99,10.75,3.67,14.46,7.63,16.77,23.51,40.29,40.68,56.91,2.24,2.17,5.23,3.38,8.34,3.38h226.34c5.89,0,10.91-4.28,11.84-10.1,2.65-16.65,8.88-36.45,15.87-49.49h0c5.17-9.42,10.94-18.57,17.69-27.3,6.4-8.29,13.66-16.21,22.13-23.69,7.19-6.35,14.46-11.41,16.65-14.6,2.37-3.46-7.92-4.61-17.49-4.82-10.35-.23-25.31.96-34.05,3.08-9.83,2.39-21.12,6.13-35.45,13.81-10.33,5.71-19.34,9.41-27.15,11.95-12.66,4.11-22.04,5.11-28.79,5.43-3.8.23-7.95-.19-11.24-1.8-2.77-1.34-5.27-3.13-5.19-6.27.02-1.69.21-3.08,1.02-4.01.96-1.13,2.23-1.88,3.57-1.95,1.45-.1,2.95.07,3.89,1,.87.86,1.35,2.11,1.01,3.74-.41,1.43.42,2.92,1.84,3.32,1.42.41,2.92-.42,3.32-1.85,1.38-3.81.38-6.95-1.39-9.35-1.88-2.54-5.09-4-8.5-4.36-3.43-.37-6.97.81-9.87,3.23-2.37,1.97-4.04,5.04-4.82,9.25-1.08,6.23,1.61,11.34,5.94,15.39,4.98,4.66,12.91,7.26,20.31,7.82,7.77.49,18.69.86,33.61-2.55,9.01-2.06,19.38-5.71,31.43-11.35,8.89-4.29,16.88-7.18,23.83-9.13-.93,1.1-1.85,2.2-2.76,3.31-6.28,7.73-11.83,15.77-16.91,24.04h0ZM1042.83,723.08h274.79c4.08,0,12.37-.92,14.58,2.5,2.21,3.43-1.98,10.75-3.67,14.46-7.63,16.77-23.51,40.29-40.68,56.91-2.24,2.17-5.23,3.38-8.34,3.38h-226.34c-5.89,0-10.91-4.28-11.83-10.1-2.66-16.65-8.89-36.45-15.87-49.49h0c-5.17-9.42-10.94-18.57-17.68-27.3-6.4-8.29-13.67-16.21-22.13-23.69-7.19-6.35-14.46-11.41-16.64-14.6-2.38-3.46,7.91-4.61,17.49-4.82,10.35-.23,25.31.96,34.04,3.08,9.84,2.39,21.12,6.13,35.45,13.81,10.34,5.71,19.35,9.41,27.15,11.95,12.66,4.11,22.05,5.11,28.8,5.43,3.8.23,7.95-.19,11.23-1.8,2.77-1.34,5.28-3.13,5.2-6.27-.02-1.69-.22-3.08-1.02-4.01-.97-1.13-2.23-1.88-3.58-1.95-1.45-.1-2.94.07-3.89,1-.87.86-1.35,2.11-1,3.74.41,1.43-.42,2.92-1.85,3.32-1.42.41-2.91-.42-3.31-1.85-1.38-3.81-.39-6.95,1.38-9.35,1.88-2.54,5.09-4,8.5-4.36,3.43-.37,6.97.81,9.87,3.23,2.38,1.97,4.05,5.04,4.82,9.25,1.08,6.23-1.61,11.34-5.94,15.39-4.98,4.66-12.91,7.26-20.3,7.82-7.76.49-18.69.86-33.62-2.55-9-2.06-19.38-5.71-31.43-11.35-8.89-4.29-16.89-7.18-23.84-9.13.94,1.1,1.85,2.2,2.76,3.31,6.29,7.73,11.84,15.77,16.91,24.04h0ZM835.83,673.44c-6.55,9.03-14.16,14.85-20.7,21.92-4.2,4.51-7.3,10.48-8.65,16.98-1.26,6.11-1.19,12.71,1.23,19.04,2.36,6.45,5.22,12.02,8.23,16.87,7.5,12.11,15.43,20.24,18.39,26.18.55,1.12,1.05,2.23,1.49,3.31.45-1.09.94-2.19,1.49-3.31,2.96-5.94,10.88-14.07,18.38-26.18,3-4.85,5.87-10.42,8.23-16.87,2.42-6.33,2.5-12.93,1.23-19.04-1.34-6.51-4.43-12.47-8.65-16.98-6.53-7.07-14.14-12.89-20.69-21.92h0ZM602.52,747.06h14.7c-3.48,9.27-6.49,19.48-8.65,29.29h-6.06v-29.29h0ZM1069.14,747.06h-14.71c3.48,9.27,6.5,19.48,8.65,29.29h6.06v-29.29h0ZM580.31,776.35h12.98v-29.29h-12.98v29.29h0ZM1091.34,776.35h-12.98v-29.29h12.98v29.29h0ZM1113.55,776.35h-12.98v-29.29h12.98v29.29h0ZM558.12,776.35h12.98v-29.29h-12.98v29.29h0ZM535.91,776.35h12.98v-29.29h-12.98v29.29h0ZM1135.74,776.35h-12.98v-29.29h12.98v29.29h0ZM513.7,776.35h12.98v-29.29h-12.98v29.29h0ZM1157.95,776.35h-12.98v-29.29h12.98v29.29h0ZM491.51,747.06v29.29h12.98v-29.29h-12.98ZM1180.15,747.06v29.29h-12.98v-29.29h12.98ZM469.3,776.35h12.98v-29.29h-12.98v29.29h0ZM1202.35,776.35h-12.98v-29.29h12.98v29.29h0ZM447.1,776.35h12.98v-29.29h-12.98v29.29h0ZM1224.56,776.35h-12.99v-29.29h12.99v29.29h0ZM424.9,776.35h12.98v-29.29h-12.98v29.29h0ZM1246.76,776.35h-12.98v-29.29h12.98v29.29h0ZM402.7,747.06v29.29h12.98v-29.29h-12.98ZM1268.96,747.06v29.29h-12.98v-29.29h12.98ZM393.47,747.06v25.36c-7.13-7.93-13.77-16.86-19.16-25.36h19.16ZM1278.18,747.06v25.36c7.13-7.93,13.77-16.86,19.16-25.36h-19.16Z"/>
  <path class="cls-1" d="M786.28,287.42c.51.16,1.01.28,1.5.35,2.6.38,5.36.11,8.2-3.22,1.05-1.23,2.61-3.01,3.67-4.95,1.26-2.34,1.87-4.9,1.58-7.41-.21-1.92-.98-3.6-2.03-5.09.29-2.81.77-5.14.99-8.5.21-3.19.06-5.86-.05-10.45-.21-9.38-.13-11.95,3.29-19,2.72-5.6,8.63-12.95,15-19.06,5.72-5.49,12.8-10.32,18.64-12.72,7.87-3.23,13.38-4.13,13.38-4.13,2.33-.36,4.36-1.81,5.45-3.92h0s42.97-82.73,50.26-99.12c7.26-16.36,17.55-39.66,24.38-55.53,4.58-10.63,6.98-17.97,7.82-22.02.76-3.67.34-6.08-.06-7.21-.99-2.75-2.83-4.09-4.68-4.78-1.88-.69-4.74-1.08-7.85,1.38-.61.49-2.54,2.63-5.15,6.21-7.88,10.82-25.84,37.43-37.86,56.61-12.2,19.43-48.71,79.02-55.12,90.72-6.07,11.06-13.09,21.89-19.27,28.6-10.53,11.43-20.78,24.82-26.22,28.01-2.9,1.69-5.48,2.04-8.49,2.42-4.34.53-9.32.98-16.12,2.94-10.82,3.13-25.85,9.74-33.84,27.27-9.52,20.89-3.58,29.82-1.65,34.96,1.8,4.78,10.92,15.59,23.12,18.38,11.25,2.58,17.68,1.38,28.49-2.85,4.28-1.68,8.73-5.6,12.64-7.91h0ZM768.68,240.61c.22.05,1.38.38,1.71.51,7.34,2.75,9.43,11.56,5.48,19.91-4.76,10.06-16.03,16.55-25.45,13.92-8.18-2.29-10.65-11.52-6.52-20.25,4.65-9.83,15.51-16.25,24.78-14.08h0Z"/>
  <path class="cls-2" d="M793.64,268.71c.23-3.78.88-6.35,1.15-10.45.2-3.05.04-5.59-.06-9.98-.23-10.62-.04-13.5,3.83-21.48,2.94-6.05,9.26-14.01,16.13-20.6,6.23-5.98,13.98-11.21,20.32-13.81,8.58-3.52,14.6-4.47,14.6-4.47.64-.1,1.19-.5,1.49-1.07,0,0,42.85-82.47,50.12-98.82,7.25-16.34,17.53-39.62,24.35-55.47,4.36-10.14,6.69-17.13,7.49-20.98.45-2.18.38-3.61.14-4.28-.31-.87-.88-1.31-1.46-1.53-.64-.23-1.58-.28-2.63.55-.5.4-1.99,2.22-4.12,5.15-7.84,10.75-25.7,37.23-37.66,56.29-12.15,19.38-48.56,78.79-54.96,90.44-6.31,11.49-13.62,22.7-20.04,29.68-10.96,11.89-21.79,25.69-27.47,29.01-3.61,2.11-6.8,2.65-10.55,3.11-4.11.51-8.84.91-15.27,2.77-9.7,2.81-23.26,8.61-30.42,24.32-8.39,18.41-3.22,26.27-1.52,30.81,1.49,3.95,9.18,12.7,19.27,15.01,9.99,2.29,15.7,1.14,25.31-2.62,4.74-1.86,9.68-6.6,13.84-8.59.64-.3,1.07.02,1.47.2.55.25,1.07.45,1.57.52,1.06.15,2.16-.02,3.31-1.38.86-1,2.17-2.43,3.03-4.01.72-1.34,1.13-2.79.97-4.23-.13-1.12-.67-2.07-1.33-2.91-.19-.25-.4-.49-.59-.72-.1-.13-.26-.37-.31-.46h0ZM770.8,235.57c11.34,3.17,15.68,15.67,9.95,27.78-5.91,12.48-20.12,20.08-31.8,16.81-11.34-3.17-15.67-15.66-9.94-27.77,5.9-12.48,20.11-20.08,31.79-16.82h0Z"/>
  <path class="cls-1" d="M847.56,185.9h0c1.09,2.36,3.32,3.98,5.91,4.28h0s11.61,1.34,21.56,5.21c5.8,2.26,9.93,6.14,15.78,11.37,6.25,5.6,14.49,15.04,15.91,20.78,1.61,6.45.46,9.22-.6,18.9-1.45,13.12,3.45,27.51,11.62,36.46,11.92,13.04,28.21,12.14,37.68,10.79,2.11-.3,3.44-.53,4.46-.14.8.32,1.18,1.08,1.87,1.88,3.77,4.36,12.61,12.71,20.39,15.54,4.48,1.62,9.55,3.36,13.96,3.95,4.39.6,8.31.06,11.29-1.57,4.67-2.53,6.36-6.37,6.45-9.96.14-4.97-3.31-10.39-9.55-12.1-4.02-1.1-8.91-1.57-15.05-3.93-3.86-1.49-6.17-4.34-6.95-7.06-.56-1.97-.3-4.3-.05-6.96.37-3.89.95-8.29,1.03-13.17.1-5.84-.17-12.65-2.63-18.91-7.25-18.36-24.34-26.79-38.55-28.12-4.76-.44-8.27-.74-11.06-1.22-3.05-.52-4.96-1.22-6.9-3.05-4.88-4.58-16.13-20.07-25-28.14-8.24-7.49-11.67-12.95-17.99-23.59-6.8-11.43-43.25-75.68-55.12-95.22-9.55-15.76-26.88-42.62-34.64-53.63-2.68-3.8-4.74-6.05-5.4-6.53-3.35-2.46-6.23-1.83-8.03-1.04-1.81.79-3.63,2.24-4.43,5.18-.29,1.06-.49,3.32.26,6.68.86,3.78,3.02,10.54,6.3,20.04,5.7,16.53,16.64,44.47,24.57,60.77,7.8,16.05,42.9,92.53,42.9,92.53h0ZM940.33,237.72c7.72-2.45,15.51,3.32,17.85,12.18,2.46,9.24-1.56,19.07-9.62,21.63-7.72,2.45-15.51-3.32-17.85-12.17-2.46-9.24,1.56-19.07,9.62-21.64h0Z"/>
  <path class="cls-2" d="M852.48,183.64c.29.64.91,1.08,1.61,1.17,0,0,12.33,1.43,22.89,5.54,6.38,2.48,11.01,6.64,17.43,12.38,7,6.27,15.96,17.06,17.56,23.51,1.76,7.09.69,10.14-.48,20.79-1.27,11.59,3.02,24.31,10.24,32.21,10.4,11.37,24.68,10.26,32.92,9.08,3.41-.49,5.56-.45,7.2.18,1.58.62,2.64,1.8,3.99,3.38,3.37,3.9,11.19,11.46,18.15,13.99,4.12,1.49,8.77,3.13,12.83,3.68,3.1.41,5.89.18,7.99-.96,2.55-1.38,3.58-3.4,3.63-5.36.08-2.81-2.03-5.75-5.58-6.72-4.16-1.14-9.2-1.66-15.57-4.11-5.74-2.21-9.04-6.57-10.2-10.62-.73-2.54-.56-5.54-.23-8.97.36-3.77.93-8.02,1.01-12.74.09-5.2-.06-11.27-2.26-16.83-6.39-16.18-21.5-23.55-34.02-24.72-12.32-1.15-16.57-1.41-21.16-5.71-4.86-4.57-16.07-20.03-24.92-28.08-8.68-7.9-12.34-13.63-19-24.83-6.79-11.42-43.24-75.65-55.09-95.18-9.51-15.66-26.73-42.37-34.45-53.32-2.13-3.02-3.66-4.91-4.18-5.29-1.12-.82-2.07-.7-2.67-.44-.56.25-1.11.71-1.37,1.64-.17.65-.14,2.02.32,4.07.83,3.67,2.95,10.24,6.14,19.47,5.65,16.37,16.48,44.04,24.32,60.17,7.8,16.05,42.96,92.63,42.96,92.63h0ZM938.69,232.57c10.51-3.34,21.52,3.89,24.72,15.94,3.23,12.15-2.61,24.82-13.22,28.18-10.51,3.33-21.52-3.89-24.72-15.94-3.23-12.14,2.61-24.81,13.22-28.17h0Z"/>
  <path class="cls-1" d="M850.38,140.62c-4.77,1.52-7.41,6.61-5.9,11.38,1.51,4.77,6.61,7.42,11.38,5.9,4.77-1.51,7.41-6.61,5.9-11.38-1.52-4.76-6.61-7.41-11.38-5.9h0ZM856.08,145.23c.83.6,1.47,1.47,1.8,2.52.83,2.63-.62,5.45-3.26,6.29-.17.06-.34.1-.52.13l1.97-8.94h0ZM852.12,144.36l-1.96,8.94c-.83-.6-1.48-1.47-1.81-2.52-.83-2.63.63-5.45,3.26-6.29.17-.06.34-.1.52-.13h0Z"/>
  <g>
    <path class="cls-5" d="M55.94,616.98c-.36-2.34,1.49-61.61-.31-62.33-2.5-9.68-7.52-19.12-14.34-24.12,6.82-6.53,12.93-15.28,15.46-26.46,1.82-17.73-2.1-71.77,4.04-88.72,13.01-43.09,52.08-61.52,85.3-54.68,30.7,5.15,60.53,34.93,57.44,75.04,0,1.77-.04,7.95-.05,10.16.27,18.04-10.27,35.55-29.73,36.63-11.53.88-29.17-2.69-32-16.62,5.77-1.32,10.84-7.1,13.02-14.01.73-3.21,1.11-6.85.76-9.99.01-3.62.41-11.77-.3-14.9-1.05-7.63-6.08-13.29-11.12-16.72-12.24-7.68-29.94-3.9-38.27,11.83-1.45,2.85-2.54,6.62-2.91,10.36,0,1.84-1.6,67.46-.16,69.19,2.5,9.53,8.23,16.37,14.69,20.79-.12.17-.24.33-.36.5-7.21,6.71-12.63,17.04-15.16,28.02-.37,4.21-1.22,61.48-.51,64.16,1.07,4.02,2.85,8.38,5.35,10.77,12.5,14.22,38.33,6.71,45.96-15.55,1.09-4.22,1.11-8.74,1.13-12.82,0-1.81.41-13.61.06-14.92-.32-8.99-6.41-15.95-13.23-16.49,3.28-13.62,18.04-20.23,32.45-22.64,15.12-2.01,27.67,9.55,28.67,25.29.34,4.82-.06,11.93-.08,16.79,2.35,34.52-13.98,62.74-39.51,81.07-40.67,30.47-105.59,18.12-106.27-49.61Z"/>
    <path class="cls-5" d="M256.55,627.72c-11.04-20.92-9.83-44.53-9.19-93.42.39-6.09.61-45.01.76-70.09-2.83-10.18-16.13-18.58-19.37-20.6,2.17-.12,9.75-.52,19.49-1.02,0,0,26-1.33,41.17-2.05,0,.14,0,.28,0,.42,8.31-.4,16.26-1.19,22.76-1.49-8.7,5.02-18.5,13.13-22.9,23.58-.14,22.94-.35,56.92-.43,70.08-.28,44.56-5.44,63.48,8.91,74.49,18.29,14.19,50.19-6.15,50.2-6.04.56-48.67,1.13-97.32,1.69-145.95-4.28-8.48-15.44-15.47-18.32-17.02,1.81-.08,9.04-.4,18.43-.8,3.25-.14,6.15-.26,9.04-.38,18.43-.36,41.58-1.27,55.69-2.19-8.71,4.77-18.16,12.06-22.93,22.48-.17,25.71-.14,128.45-.16,130.89-.09,13.07,11.04,24.17,18.62,26.64-8.72,6.54-17.08,11.47-31.21,17.55-12.69,5.49-34.77,12.67-53.19,17.18-38.3,10.07-56.95,1.58-69.06-22.26Z"/>
    <path class="cls-5" d="M462.1,564.62c.11-17.54,1.46-57.82-.61-72.45-2.11-9.05-8.58-15.53-15.43-20.02,7.27-5.14,12.03-13.72,14.98-22.2.36-.01.79-9.99,1.24-23.15-.26-15.53-.13-35.85-.11-38.64.03-3.98-1.39-8.34-1.75-9.14-3.92-9.5-12.55-15.79-21.2-20.53,26.88-.27,53.76-.51,80.65-.72-.24.13-.48.27-.73.4-6.17,3.97-10.91,9.91-11.68,17.79-.1,16.52-.27,42.87-.07,69.99,2.54-1.26,5.09-2.91,7.99-4.18,1.09-.42,1.81-.45,2.9-.87,12.68-2.33,20.94,10.33,30.68,15.85,5.06,2.17,11.22.43,15.95-2.81-4.02,6.7-14.23,19.06-22.59,24.05-21.81,13.32-27.2,5.41-35.13-.58.08,46.38-.18,87.66-.14,81.77-.14,21.66,11.36,37.68,28.8,34.14,10.53-2.27,18.56-10.53,18.62-21.01-.28-14.73-12.96-17.15-12.96-17.15,4.05-9.97,14.96-16.75,26.56-15.75,17.39,2.28,28.94,15.64,30.31,32.09,2.4,30.21-23.12,48.18-47.48,54.25-45.45,11.15-89.12-13.49-88.8-61.14Z"/>
    <path class="cls-5" d="M626.02,478.79c.07-16.46.15-32.91.22-49.37.72-.01,1.45-.03,2.17-.04,40.81-.73,81.64-1.25,122.47-1.55-.02,12.56-.05,25.11-.07,37.67-11.88,16.19-23.77,32.45-35.68,48.8-.36.38-.36.76-.73,1.15-2.56,7.99-.77,17.03,2.47,25.27-8.35-1.33-16.71,1.89-23.63,5.87-.36.39-1.46,1.18-2.91,2.35-8.03,11.21-16.06,22.47-24.1,33.79,5.45-1.08,63.61-.51,67.26-3.87,5.82-2.39,11.29-6.64,15.66-11.62-.02,8.67-.44,38.06-.46,47.85-41.12.87-82.24,2.38-123.32,4.53.18-13.27.36-26.55.54-39.82,12.79-18.43,25.58-36.69,38.35-54.8,2.57-8.06.79-16.75-2.45-24.66,8.34,1.31,16.33-1.93,23.6-5.87,0,0,.36-.39.73-.77,7.29-10.14,14.58-20.24,21.86-30.31-5.08.4-62.36-.43-66,2.77-6.17,2.43-11.63,7.15-16.01,12.63Z"/>
    <path class="cls-5" d="M773.44,614.64c7.65-3.51,21.12-13.05,24.04-23.59-.36-.75,1.18-107.48.46-108.23-2.17-6.38-8.33-13.87-15.22-14.57,2.91-1.15,13.07-13.23,14.89-19.25,2.54-1.14,1.14-67.64,1.87-69.52-3.25-10.89-14.46-18.02-23.86-22.89,24.6.7,77.79-.05,84.3-.03-3.98,2.25-20.26,12.38-20.26,22.15,0,10.89,0,55.96,0,55.96,0,0,16.31-5.62,22.11-7.1,35.87-8.93,57.62,2.52,69.64,25.27,13.47,25.79,17.57,60.27,14.73,87.02-4.26,38.09-18.01,63.29-53.67,72.5-3.64.7-9.1,1.75-13.1,1.71-34.58.31-77.9.1-105.93.57ZM900.77,563.57c10.51-23.17,10.38-83.86-10.68-100.55-18.87-15.18-50.77,6.57-50.78,6.57-.12,36.93-.23,73.86-.35,110.79,19.64.73,52.02,4.84,61.8-16.82Z"/>
    <path class="cls-5" d="M1077.25,621.6c-20.71-1.26-41.43-2.36-62.16-3.3.24-.12.48-.23.73-.35,5.44-3.18,9.05-8.73,10.48-14.77.36-.37.36-1.51.72-2.26.36-.75.16-48.08.16-48.84-1.48-7.31-6.6-15.5-12.79-19.89,3.62-2.17,7.24-5.1,9.4-8.47-13.05-25.34-26.08-50.48-39.09-75.47-3.65-6.89-7.66-13.77-13.47-18.38-1.09-.39-2.18-1.54-3.27-1.93,14.86.16,50,.29,64.49.94-2.17,1.49-4.69,4.12-6.13,6.77-1.44,2.27-2.15,5.3-1.78,7.98,0,.38.37,1.53.37,1.91,7.43,14.9,14.87,29.86,22.31,44.89.36-2.99,26.59-48.77,22.58-51.23-1.47-3.88-4.38-7.4-7.65-9.77,14.49.27,49.98.69,64.82,1.48-.36,0-.36,0-.36,0q-.36.38-.72.37c1.09.03,2.17.06,3.26.08-1.09-.03-2.17-.06-3.26-.08-5.77,3.75-9.72,9.48-13.31,15.2-.72,1.15-1.79,3.06-2.15,4.21-.34.55-40.9,74.85-41.28,75.44,2.56,3.95,6.2,6.79,9.48,9.63-6.15,3.59-10.47,10.32-12.61,17.53,0,.77-.48,49.17-.12,49.96,0,1.92.75,4.27,1.12,5.83,1.48,5.46,5.86,9.56,10.23,12.53Z"/>
    <path class="cls-5" d="M1183.59,401.62c-6.86,1.83-12.98,6.83-18.02,11.83.13-18.24.26-36.49.38-54.73.72,0,1.45.01,2.17.02,45.09.39,90.17.86,135.24,1.4-.02,14.29-.05,28.57-.07,42.86-13.65,31.21-27.3,61.93-40.95,92.24-.36.38-.35,1.6-.35,2.41.05,7.71,2.63,15.17,5.94,22.31-6.15-.42-12.28,2.02-17.32,5.72-1.44.71-2.52,1.85-3.6,2.58-9.74,21.54-19.49,42.88-29.25,64.04,5.8-.45,64.09,7.34,68.4,4.2,6.13-1.85,12.25-5.76,16.91-11.07.07,9.89-.05,46.51.02,57.21-45.07-5.35-90.23-9.92-135.45-13.72.04-13.64.07-27.29.11-40.94,13.47-28.55,26.93-57.38,40.37-86.55,0-.8-.01-1.99-.02-2.79-.41-6.8-2.98-13.31-5.92-19.01,6.51-.09,13.37-2.96,18.05-6.74.36-.38,1.08-.75,1.44-1.13,10.7-23.26,21.39-46.75,32.08-70.5-6.14.61-66.56-2.77-70.16.36Z"/>
    <path class="cls-5" d="M1420.71,657.54c-20.88-3.16-59.46-8.5-80.41-11.12,7.91-4,16.54-8.76,20.81-17.92.36-.38.71-2.02,1.06-2.82.11-20.49.22-40.99.33-61.49,0-.84-.74-2.18-1.1-3.48-2.93-7.45-7.31-14.58-13.11-18.85,5.39-3.72,10.77-8.73,13.26-15.27.36-.39,1.07-1.6,1.07-2.44.23-21.2.45-42.42.68-63.64-.78-8.91-4.8-15.86-11.33-20.78-.12-.15-.24-.29-.36-.44,26.74,1.22,53.47,2.53,80.18,3.94-8.27,4.78-16.9,10.79-21.17,21.3-.36.84-1.07,2.52-1.06,2.95.74,2.65-2.18,59.21,0,61.53,2.57,7.54,8.38,14.55,14.17,19.9-7.18,4.48-12.18,13.02-15.01,21.74.37,1.77-.38,58.86-.37,60.57.37,1.77.38,3.92.75,5.26.12.88.25,1.75.38,2.63,1.48,7.51,5.84,14.16,11.26,18.43ZM1363.65,403.97c-2.88,1.18-10.08,6.41-10.08,6.41,0-.03,2.74-23.77,19.96-44.24.72-.84,1.44-1.67,2.16-2.09,10.79-8.35,23.49.33,34.7,1.41,5.42.09,10.45-5.01,13.31-10.61-.67,9.1-5.28,26.34-11,35.23-21.11,34.15-30.66,6.73-49.05,13.9Z"/>
    <path class="cls-5" d="M1480.63,715.37c-.09-18.63,15.29-30.66,27.84-28.44,11.48,2.05,22.25,9.04,26.22,21.7,0,0-13.25-.74-13.91,13.18-.68,9.83,5.09,21.43,15.47,25.52,19.32,7.91,37.48-5.56,37.44-31.31,0-.47-.03-15.39-.07-35.45-39.98,11.99-98.59-23.69-98.91-83.32-.02-4.88.28-17.26-1.17-18.32-2.92-9.66-7.65-19.49-14.88-25.54,7.18-4.51,13.26-11.4,15.38-21.39,2.08-16.22-1.93-26.75,3.77-41.83,13.15-38.38,45.93-51.37,81.99-42.25,28.85,6.76,50.82,34.07,50.85,75.15,0,.48,0,.48,0,.95,0,.16,0,.32,0,.48,0,5.24-.27,96.06,1.16,97.25,2.87,10.94,7.53,21.27,14.68,28.31-6.79,5.03-13.22,11.97-15.35,22.03-2.13,17.67-1.05,25.95-1.03,46.89.02,57.12-40.1,80.75-84.46,61.06-24.33-10.7-44.86-33.64-45.01-64.68ZM1512.13,515.97c0,1.81-.9,47.33-.81,69.46.09,22.56,5.9,40.11,13.81,46.8,19.79,16.75,48.41,11.64,48.34-21.63-.05-22.85.65-30.69.65-30.69-.01-7-.03-12.13-.03-14.93,0-1.4,0-1.87,0-1.87-.01-5.6-.04-21-.07-34.06-.02-10.24.67-28.01-14.47-39.03-21.27-15.1-47.88,1.21-47.42,25.94Z"/>
  </g>
</svg>